<svg xmlns="http://www.w3.org/2000/svg" width="525.202" height="340.268" viewBox="0 0 525.202 340.268">
  <g id="design" transform="translate(-127.01 -80.412)">
    <rect id="長方形_1" data-name="長方形 1" width="172.913" height="274.961" transform="translate(127.01 145.719)" fill="#333232"/>
    <g id="グループ_1" data-name="グループ 1">
      <path id="パス_1" data-name="パス 1" d="M163.333,353.374v4.368h8.736v-8.736h-8.736Zm7.488,0v3.12h-6.24v-6.24h6.24Zm0,0" fill="#fff"/>
      <path id="パス_2" data-name="パス 2" d="M165.829,353.374v1.872h3.744V351.5h-3.744Zm0,0" fill="#fff"/>
      <path id="パス_3" data-name="パス 3" d="M173.317,349.63v.624h3.744v2.5h-1.248V351.5h-1.248v1.248h1.248v2.5h-1.248v1.248h-1.248v2.5h1.248v1.248h-1.248v1.248h-2.5v-1.248h1.248V358.99h-1.248v1.248h-1.248V358.99h-2.5v1.248h-1.248V358.99h-2.5v7.488h2.5v1.248h2.5v-3.744h2.5v1.248h-1.248v1.248h1.248v1.248h-1.248v2.5h-2.5v-1.248h-1.248v1.248h-1.248v-2.5h-1.248v7.488h2.5v-2.5h2.5v2.5h3.744v-1.248h1.248v2.5h1.248v2.5h-1.248v2.5h1.248V382.7h-1.248v2.5h2.5V383.95h-1.248V382.7h1.248v-1.248h1.248v2.5h1.248V382.7h2.5v-1.248h1.248V382.7H183.3v1.248h-2.5V385.2h2.5V383.95h1.248V382.7H183.3v-1.248h2.5V382.7h1.248v-1.248H185.8v-1.248h-1.248v-1.248H185.8V377.71h-1.248v1.248H183.3v-3.744h1.248v1.248h2.5v3.744h1.248v1.248h1.248V382.7h1.248v-2.5h1.248v3.744h-1.248V385.2h1.248V383.95h1.248V385.2h2.5V383.95h1.248V382.7h1.248v1.248h1.248v-3.744h-1.248v-1.248h1.248V377.71h-2.5v2.5h1.248v1.248h-2.5V382.7h-1.248v-1.248h-1.248v-1.248h2.5v-1.248h-1.248V377.71h1.248v-2.5h2.5v-1.248h-1.248v-1.248h-1.248V371.47h2.5v1.248h1.248V371.47h-1.248v-1.248h-2.5v-1.248h1.248v-2.5h1.248v2.5h1.248v-6.24h-1.248v2.5h-4.992v-1.248h-1.248v-1.248h1.248v-1.248h1.248v-1.248h-2.5V358.99h-1.248v1.248h1.248v1.248h-1.248v4.992h-3.744V365.23h-2.5v-1.248H185.8v-1.248h-1.248v-1.248h3.744v1.248h-1.248v1.248h1.248v1.248h1.248v-4.992h-2.5V358.99H183.3v-1.248h1.248v-1.248H185.8v1.248h1.248v-1.248H185.8v-1.248h2.5V354h1.248V352.75h-1.248V354h-2.5V352.75h-3.744V354H180.8v-3.744h1.248v-1.248h-2.5v1.248h-1.248v-1.248h-4.992Zm6.24,3.12V354h-1.248v-2.5h1.248Zm3.744,1.872v.624h1.248V354H185.8v1.248h-1.248v1.248H183.3v1.248h-1.248v1.248H180.8v1.248h-1.248v1.248h-1.248v1.248h2.5v-1.248h1.248v1.248H183.3v2.5h-4.992v1.248h2.5v1.248h1.248v1.248h-2.5v-1.248h-1.248v1.248h-1.248v2.5h1.248v-1.248h1.248v1.248H180.8v-1.248h1.248v2.5H183.3v-6.24h2.5v1.248h2.5v1.248h-1.248v1.248H185.8v1.248h1.248v1.248H185.8v1.248h-3.744v1.248H180.8v-2.5h-1.248v2.5h-1.248v1.248h1.248v1.248h-1.248v-1.248h-1.248v1.248h-1.248v-1.248h1.248v-1.248h1.248v-2.5h-1.248V371.47h-1.248v1.248h-1.248V371.47h-1.248v-1.248h-1.248v1.248h-1.248v1.248h1.248v1.248h-1.248v-1.248h-1.248v-2.5h2.5v-1.248h-1.248v-1.248h1.248v1.248h4.992v-1.248h-1.248v-1.248h-1.248v1.248h-1.248v-2.5h-1.248v1.248h-1.248V365.23h1.248v-1.248h-1.248v-1.248h-4.992v1.248h1.248v2.5h-1.248v-2.5h-1.248v-2.5h2.5v-1.248h2.5v1.248h1.248v1.248h1.248v1.248h1.248v1.248h2.5v1.248h1.248v-2.5h-2.5v-1.248h1.248v-1.248h-1.248v-1.248h1.248v-2.5h-1.248v-1.248h1.248v-1.248h1.248v1.248h1.248v-1.248h3.744V354H183.3Zm1.248,6.24v.624H183.3v-1.248h1.248Zm8.736,4.992v.624h2.5v2.5h-1.248v1.248h1.248v1.248h-1.248v1.248h-3.744v1.248h-2.5v-1.248h1.248v-3.744h4.992v-1.248h-1.248v-1.248h-1.248v1.248h-1.248v-1.248h1.248V365.23h1.248Zm-26.208,4.992v.624h-1.248v-1.248h1.248Zm21.216,4.992v.624h-1.248v-1.248h1.248Zm4.992,1.248v1.872h-3.744v-3.744h3.744Zm-11.232.624v1.248H183.3v1.248h-2.5v-3.744h1.248Zm-6.24,3.12v.624h-1.248v-1.248h1.248Zm3.744,0v.624h-2.5v-1.248h2.5Zm14.976,2.5v.624h-1.248V382.7h1.248Zm0,0" fill="#fff"/>
      <path id="パス_4" data-name="パス 4" d="M175.813,357.118v.624h1.248v-1.248h-1.248Zm0,0" fill="#fff"/>
      <path id="パス_5" data-name="パス 5" d="M178.309,358.366v1.872h1.248V358.99H180.8v-1.248h1.248v-1.248H180.8v1.248h-1.248v-1.248h-1.248Zm0,0" fill="#fff"/>
      <path id="パス_6" data-name="パス 6" d="M175.813,360.862v.624h1.248v-1.248h-1.248Zm0,0" fill="#fff"/>
      <path id="パス_7" data-name="パス 7" d="M174.565,370.846v.624h1.248v-1.248h-1.248Zm0,0" fill="#fff"/>
      <path id="パス_8" data-name="パス 8" d="M178.309,372.094v.624h1.248V371.47h-1.248Zm0,0" fill="#fff"/>
      <path id="パス_9" data-name="パス 9" d="M193.285,370.846v.624h1.248v-1.248h-1.248Zm0,0" fill="#fff"/>
      <path id="パス_10" data-name="パス 10" d="M190.789,377.086v.624h1.248v-1.248h-1.248Zm0,0" fill="#fff"/>
      <path id="パス_11" data-name="パス 11" d="M185.8,349.63v.624h-2.5V351.5h2.5v-1.248h1.248V351.5h1.248v-1.248h-1.248v-1.248H185.8Zm0,0" fill="#fff"/>
      <path id="パス_12" data-name="パス 12" d="M190.789,353.374v4.368h8.736v-8.736h-8.736Zm7.488,0v3.12h-6.24v-6.24h6.24Zm0,0" fill="#fff"/>
      <path id="パス_13" data-name="パス 13" d="M193.285,353.374v1.872h3.744V351.5h-3.744Zm0,0" fill="#fff"/>
      <path id="パス_14" data-name="パス 14" d="M188.293,357.118v.624h1.248v-1.248h-1.248Zm0,0" fill="#fff"/>
      <path id="パス_15" data-name="パス 15" d="M198.277,359.614v.624h-2.5v2.5h-1.248v1.248h1.248v-1.248h1.248v-1.248h1.248v-1.248h1.248V358.99h-1.248Zm0,0" fill="#fff"/>
      <path id="パス_16" data-name="パス 16" d="M163.333,380.83V385.2h8.736v-8.736h-8.736Zm7.488,0v3.12h-6.24v-6.24h6.24Zm0,0" fill="#fff"/>
      <path id="パス_17" data-name="パス 17" d="M165.829,380.83V382.7h3.744v-3.744h-3.744Zm0,0" fill="#fff"/>
      <path id="パス_18" data-name="パス 18" d="M187.045,384.574v.624h2.5V383.95h-2.5Zm0,0" fill="#fff"/>
    </g>
    <g id="グループ_3" data-name="グループ 3">
      <g id="グループ_2" data-name="グループ 2">
        <path id="パス_19" data-name="パス 19" d="M265.221,240.573a1.777,1.777,0,1,1-1.777,1.776,1.778,1.778,0,0,1,1.777-1.776m0-1.2a2.977,2.977,0,1,0,2.976,2.976,2.976,2.976,0,0,0-2.976-2.976Z" fill="#b0aea7"/>
      </g>
      <path id="パス_20" data-name="パス 20" d="M168.4,230.135l-9.793-15.858h5.3l6.907,11.693,6.8-11.693h5.115l-9.756,15.858v10.231H168.4Z" fill="#fff"/>
      <path id="パス_21" data-name="パス 21" d="M203.274,217.9a22.314,22.314,0,0,1,.254-3.36h-4.454a27,27,0,0,0-.21,3.36,26.67,26.67,0,0,0,26.67,26.67v-4.41A22.285,22.285,0,0,1,203.274,217.9Z" fill="#fff"/>
      <path id="パス_22" data-name="パス 22" d="M199.284,214.536h-4.453a22.272,22.272,0,0,1-22.007,25.62v4.41a26.688,26.688,0,0,0,26.46-30.03Z" fill="#fff"/>
      <rect id="長方形_2" data-name="長方形 2" width="4.32" height="4.2" transform="translate(168.504 240.366)" fill="#faab15"/>
      <rect id="長方形_3" data-name="長方形 3" width="34.053" height="4.252" transform="translate(225.468 240.219)" fill="#faab15"/>
    </g>
    <g id="グループ_4" data-name="グループ 4">
      <path id="パス_23" data-name="パス 23" d="M164.525,284.056a2.786,2.786,0,0,1-.855-2.145c0-.1.01-.27.03-.51l.48-3.885a3.86,3.86,0,0,1,.66-1.792,3.684,3.684,0,0,1,1.4-1.2,4.2,4.2,0,0,1,1.9-.428,3.337,3.337,0,0,1,2.31.765,2.64,2.64,0,0,1,.855,2.07q0,.15-.03.48v.015c-.02.111-.075.165-.165.165l-1.11.06q-.15,0-.135-.135v-.045a3.152,3.152,0,0,0,.03-.345,1.694,1.694,0,0,0-.518-1.3,1.938,1.938,0,0,0-1.387-.488,2.35,2.35,0,0,0-2.415,2.13l-.495,3.99a2.425,2.425,0,0,0-.015.315,1.755,1.755,0,0,0,.51,1.32,1.939,1.939,0,0,0,1.41.495,2.337,2.337,0,0,0,2.4-2.13v-.03a.154.154,0,0,1,.165-.135l1.1.06q.15,0,.12.15a3.775,3.775,0,0,1-.653,1.748,3.609,3.609,0,0,1-1.387,1.177,4.262,4.262,0,0,1-1.9.42A3.236,3.236,0,0,1,164.525,284.056Z" fill="#b0aea7"/>
      <path id="パス_24" data-name="パス 24" d="M173.263,284.274a2.5,2.5,0,0,1-.923-1.567,5,5,0,0,1-.09-1.006,7.466,7.466,0,0,1,.045-.825,6.309,6.309,0,0,1,.48-1.8,3.462,3.462,0,0,1,1.305-1.552,3.567,3.567,0,0,1,1.98-.563,2.725,2.725,0,0,1,1.755.563,2.594,2.594,0,0,1,.915,1.538,4.592,4.592,0,0,1,.09.959,8.153,8.153,0,0,1-.045.84,6.158,6.158,0,0,1-.48,1.846,3.577,3.577,0,0,1-1.3,1.567,3.416,3.416,0,0,1-1.92.562A2.865,2.865,0,0,1,173.263,284.274Zm3.037-1.02a2.124,2.124,0,0,0,.735-.953,6.052,6.052,0,0,0,.33-1.41q.06-.66.06-.93a4.316,4.316,0,0,0-.03-.465,1.6,1.6,0,0,0-.518-.952,1.508,1.508,0,0,0-1.012-.337,1.833,1.833,0,0,0-1.08.337,2.22,2.22,0,0,0-.75.952,5.845,5.845,0,0,0-.33,1.395,7.068,7.068,0,0,0-.045.78,3.877,3.877,0,0,0,.045.63,1.477,1.477,0,0,0,.495.945,1.513,1.513,0,0,0,1.02.345A1.833,1.833,0,0,0,176.3,283.254Z" fill="#b0aea7"/>
      <path id="パス_25" data-name="パス 25" d="M185.9,274.261a.162.162,0,0,1,.12-.045h1.1a.14.14,0,0,1,.113.045.116.116,0,0,1,.022.105l-1.26,10.2a.144.144,0,0,1-.045.1.162.162,0,0,1-.12.045h-1.1c-.09,0-.135-.049-.135-.15l.06-.495c.01-.02.008-.034-.008-.045s-.032-.005-.052.016a2.454,2.454,0,0,1-.825.592,2.416,2.416,0,0,1-.975.2,2.516,2.516,0,0,1-1.68-.532,2.555,2.555,0,0,1-.825-1.508,4.377,4.377,0,0,1-.1-1.02,6.383,6.383,0,0,1,.06-.9,6.577,6.577,0,0,1,.465-1.814,3.556,3.556,0,0,1,1.192-1.546,3.092,3.092,0,0,1,1.853-.555,2.063,2.063,0,0,1,.922.2,1.824,1.824,0,0,1,.683.577c.02.02.037.026.053.015a.051.051,0,0,0,.022-.045l.42-3.345A.147.147,0,0,1,185.9,274.261Zm-.885,6.63a6.029,6.029,0,0,0,.06-.855,2.719,2.719,0,0,0-.18-1.065,1.173,1.173,0,0,0-1.14-.764,1.668,1.668,0,0,0-1.4.719,4.117,4.117,0,0,0-.705,1.98,6.708,6.708,0,0,0-.045.735,3.048,3.048,0,0,0,.18,1.125,1.194,1.194,0,0,0,.48.615,1.479,1.479,0,0,0,.81.21,1.633,1.633,0,0,0,1.38-.81A4.363,4.363,0,0,0,185.015,280.891Z" fill="#b0aea7"/>
      <path id="パス_26" data-name="パス 26" d="M188.015,284.551l.9-7.32a.152.152,0,0,1,.15-.149h1.11c.09,0,.135.049.135.149l-.9,7.32a.159.159,0,0,1-.165.15h-1.11Q187.985,284.7,188.015,284.551Zm1.185-8.895a.79.79,0,0,1-.225-.585,1.092,1.092,0,0,1,.308-.8,1.014,1.014,0,0,1,.757-.315.827.827,0,0,1,.6.218.785.785,0,0,1,.225.592,1.084,1.084,0,0,1-.315.788,1.012,1.012,0,0,1-.75.322A.811.811,0,0,1,189.2,275.656Z" fill="#b0aea7"/>
      <path id="パス_27" data-name="パス 27" d="M197.367,277.569a2.148,2.148,0,0,1,.608,1.612c0,.09-.01.236-.03.435l-.6,4.95a.231.231,0,0,1-.06.1.144.144,0,0,1-.105.045h-1.11c-.091,0-.135-.049-.135-.15l.585-4.665a1.785,1.785,0,0,0,.015-.27,1.446,1.446,0,0,0-.36-1.02,1.286,1.286,0,0,0-.99-.39,1.659,1.659,0,0,0-1.193.466,1.921,1.921,0,0,0-.577,1.2l-.57,4.68a.159.159,0,0,1-.165.15h-1.11c-.1,0-.14-.049-.12-.15l.9-7.335a.158.158,0,0,1,.165-.149h1.1a.136.136,0,0,1,.112.044.116.116,0,0,1,.023.1l-.075.54a.048.048,0,0,0,.022.045c.015.01.028.005.037-.015a2.458,2.458,0,0,1,1.951-.825A2.314,2.314,0,0,1,197.367,277.569Z" fill="#b0aea7"/>
      <path id="パス_28" data-name="パス 28" d="M204.8,277.082h1.111c.1,0,.139.049.119.149l-.869,7.1a3.549,3.549,0,0,1-1.313,2.6,4.633,4.633,0,0,1-2.767.781c-.161,0-.4-.011-.721-.031-.089-.009-.13-.065-.12-.165l.165-1.035a.173.173,0,0,1,.068-.112.127.127,0,0,1,.112-.023c.141.01.34.015.6.015a2.969,2.969,0,0,0,1.837-.472,2.317,2.317,0,0,0,.757-1.6l.031-.27c0-.06-.026-.07-.076-.03a2.448,2.448,0,0,1-1.875.735,2.746,2.746,0,0,1-1.65-.509,2.211,2.211,0,0,1-.87-1.5,4.958,4.958,0,0,1-.045-.676,10.475,10.475,0,0,1,.076-1.155,7.085,7.085,0,0,1,.464-1.919A3.382,3.382,0,0,1,201,277.509a2.924,2.924,0,0,1,1.732-.548,2.151,2.151,0,0,1,1.786.75c.029.05.054.045.074-.015l.045-.465A.158.158,0,0,1,204.8,277.082Zm-.742,4.71c.035-.17.083-.48.142-.931.06-.54.091-.885.091-1.035a3.257,3.257,0,0,0-.031-.36,1.38,1.38,0,0,0-.4-.907,1.332,1.332,0,0,0-.975-.352,1.683,1.683,0,0,0-1.057.352,2.246,2.246,0,0,0-.7.907,4.23,4.23,0,0,0-.331,1.395c-.05.451-.075.77-.075.96a1.724,1.724,0,0,0,.046.45,1.4,1.4,0,0,0,1.454,1.26,1.694,1.694,0,0,0,1.08-.352,1.843,1.843,0,0,0,.631-.908A4.447,4.447,0,0,0,204.057,281.792Z" fill="#b0aea7"/>
      <path id="パス_29" data-name="パス 29" d="M213.979,278.266H212.4a.053.053,0,0,0-.06.06l-.495,3.975a2.13,2.13,0,0,0-.015.285.859.859,0,0,0,.248.69,1.144,1.144,0,0,0,.757.21h.42a.139.139,0,0,1,.113.045.116.116,0,0,1,.022.1l-.12.93a.132.132,0,0,1-.15.15q-.48.03-.675.03a2.869,2.869,0,0,1-1.515-.322,1.284,1.284,0,0,1-.51-1.178c0-.09.01-.235.03-.434l.555-4.486a.053.053,0,0,0-.06-.06h-.885q-.15,0-.12-.15l.1-.885a.158.158,0,0,1,.165-.149h.885a.053.053,0,0,0,.06-.061l.225-1.77a.159.159,0,0,1,.165-.15h1.05a.123.123,0,0,1,.1.045.112.112,0,0,1,.022.105l-.21,1.77a.028.028,0,0,0,0,.038.051.051,0,0,0,.045.023h1.575c.1,0,.14.049.12.149l-.1.885A.159.159,0,0,1,213.979,278.266Z" fill="#b0aea7"/>
      <path id="パス_30" data-name="パス 30" d="M220.841,277.569a2.148,2.148,0,0,1,.608,1.612c0,.09-.01.236-.03.435l-.6,4.95a.223.223,0,0,1-.06.1.144.144,0,0,1-.1.045h-1.11c-.09,0-.135-.049-.135-.15l.585-4.665a1.785,1.785,0,0,0,.015-.27,1.446,1.446,0,0,0-.36-1.02,1.284,1.284,0,0,0-.99-.39,1.659,1.659,0,0,0-1.193.466,1.921,1.921,0,0,0-.577,1.2l-.57,4.68a.159.159,0,0,1-.165.15h-1.11c-.1,0-.14-.049-.12-.15l1.245-10.2a.16.16,0,0,1,.165-.15h1.11c.1,0,.14.051.12.15l-.42,3.4a.047.047,0,0,0,.023.045c.014.01.027.005.037-.015a2.456,2.456,0,0,1,1.95-.825A2.312,2.312,0,0,1,220.841,277.569Z" fill="#b0aea7"/>
      <path id="パス_31" data-name="パス 31" d="M223.751,284.274a2.5,2.5,0,0,1-.922-1.567,5,5,0,0,1-.09-1.006,7.466,7.466,0,0,1,.045-.825,6.276,6.276,0,0,1,.48-1.8,3.462,3.462,0,0,1,1.3-1.552,3.564,3.564,0,0,1,1.98-.563,2.727,2.727,0,0,1,1.755.563,2.6,2.6,0,0,1,.915,1.538,4.591,4.591,0,0,1,.09.959,8.153,8.153,0,0,1-.045.84,6.159,6.159,0,0,1-.48,1.846,3.577,3.577,0,0,1-1.3,1.567,3.416,3.416,0,0,1-1.92.562A2.868,2.868,0,0,1,223.751,284.274Zm3.038-1.02a2.124,2.124,0,0,0,.735-.953,6.051,6.051,0,0,0,.33-1.41q.06-.66.06-.93a4.312,4.312,0,0,0-.03-.465,1.6,1.6,0,0,0-.518-.952,1.508,1.508,0,0,0-1.012-.337,1.833,1.833,0,0,0-1.08.337,2.22,2.22,0,0,0-.75.952,5.8,5.8,0,0,0-.33,1.395,7.068,7.068,0,0,0-.045.78,3.877,3.877,0,0,0,.045.63,1.477,1.477,0,0,0,.495.945,1.508,1.508,0,0,0,1.019.345A1.836,1.836,0,0,0,226.789,283.254Z" fill="#b0aea7"/>
      <path id="パス_32" data-name="パス 32" d="M231.1,284.281a1.586,1.586,0,0,1-.727-1.335.839.839,0,0,1,.015-.2l.029-.165a.145.145,0,0,1,.046-.105.161.161,0,0,1,.119-.044h1.036a.138.138,0,0,1,.112.044.11.11,0,0,1,.022.105l-.014.075a.794.794,0,0,0,.36.735,1.712,1.712,0,0,0,1.08.315,1.932,1.932,0,0,0,1.154-.322.958.958,0,0,0,.451-.8.645.645,0,0,0-.353-.592,5.507,5.507,0,0,0-1.118-.428,9.666,9.666,0,0,1-1.259-.45,2.376,2.376,0,0,1-.84-.63,1.513,1.513,0,0,1-.345-1.02,2.148,2.148,0,0,1,.862-1.792,3.51,3.51,0,0,1,2.213-.668,3.06,3.06,0,0,1,1.889.533,1.658,1.658,0,0,1,.706,1.387,1.26,1.26,0,0,1-.016.241l-.014.044a.144.144,0,0,1-.045.105.146.146,0,0,1-.105.045h-1.02a.139.139,0,0,1-.113-.045.11.11,0,0,1-.022-.105l.015-.044a.774.774,0,0,0-.338-.728,1.759,1.759,0,0,0-1.088-.293,2.061,2.061,0,0,0-1.125.278.856.856,0,0,0-.434.757.659.659,0,0,0,.36.6,5.751,5.751,0,0,0,1.14.45,11.4,11.4,0,0,1,1.275.436,2.3,2.3,0,0,1,.847.614,1.519,1.519,0,0,1,.352,1.035,2.217,2.217,0,0,1-.4,1.313,2.557,2.557,0,0,1-1.117.87,4.13,4.13,0,0,1-1.635.307A3.281,3.281,0,0,1,231.1,284.281Z" fill="#b0aea7"/>
      <path id="パス_33" data-name="パス 33" d="M243.858,281.326a.148.148,0,0,1-.165.15h-4.65a.053.053,0,0,0-.06.06c-.02.24-.03.4-.03.48a1.526,1.526,0,0,0,.03.3,1.335,1.335,0,0,0,.518.938,1.917,1.917,0,0,0,1.192.337,2.148,2.148,0,0,0,1.77-.915q.09-.148.2-.045l.765.57a.136.136,0,0,1,.015.2,3.34,3.34,0,0,1-1.29,1.073,3.957,3.957,0,0,1-1.74.382,2.9,2.9,0,0,1-1.725-.472,2.51,2.51,0,0,1-.93-1.373,4.267,4.267,0,0,1-.149-1.2c0-.189.019-.505.06-.945.049-.38.1-.7.157-.96a3.647,3.647,0,0,1,.218-.7,3.351,3.351,0,0,1,3.224-2.235,2.622,2.622,0,0,1,2.078.735,3.187,3.187,0,0,1,.638,2.145A12.872,12.872,0,0,1,243.858,281.326Zm-3.817-2.8a1.977,1.977,0,0,0-.667.862,4.122,4.122,0,0,0-.226.84c-.01.04.005.061.045.061h3.33a.054.054,0,0,0,.06-.061c.02-.24.03-.4.03-.48a1.58,1.58,0,0,0-.4-1.117,1.432,1.432,0,0,0-1.1-.427A1.767,1.767,0,0,0,240.041,278.529Z" fill="#b0aea7"/>
      <path id="パス_34" data-name="パス 34" d="M168.77,295.126a.162.162,0,0,1,.12-.044h1.08a.139.139,0,0,1,.113.044.116.116,0,0,1,.022.1l-.9,7.335a.159.159,0,0,1-.165.151h-1.095c-.1,0-.14-.05-.12-.151l.06-.554c.01-.02.008-.033-.008-.037s-.032,0-.052.022a2.349,2.349,0,0,1-1.9.825,2.558,2.558,0,0,1-1.68-.555,1.908,1.908,0,0,1-.675-1.56,3.164,3.164,0,0,1,.015-.36l.63-5.116a.158.158,0,0,1,.165-.149h1.1a.119.119,0,0,1,.1.044.114.114,0,0,1,.023.1l-.57,4.665a2.294,2.294,0,0,0-.015.3,1.418,1.418,0,0,0,.345,1.012,1.292,1.292,0,0,0,.99.368,1.712,1.712,0,0,0,1.222-.458,1.92,1.92,0,0,0,.578-1.223l.585-4.665A.147.147,0,0,1,168.77,295.126Z" fill="#b0aea7"/>
      <path id="パス_35" data-name="パス 35" d="M177.012,295.569a2.148,2.148,0,0,1,.608,1.612c0,.09-.01.236-.03.436l-.6,4.949a.234.234,0,0,1-.06.106.144.144,0,0,1-.1.045h-1.11c-.09,0-.135-.05-.135-.151l.585-4.665a1.783,1.783,0,0,0,.015-.27,1.446,1.446,0,0,0-.36-1.02,1.281,1.281,0,0,0-.99-.39,1.662,1.662,0,0,0-1.193.465,1.926,1.926,0,0,0-.577,1.2l-.57,4.68a.16.16,0,0,1-.165.151h-1.11c-.1,0-.14-.05-.12-.151l.9-7.335a.158.158,0,0,1,.165-.149h1.1a.137.137,0,0,1,.112.044.117.117,0,0,1,.023.1l-.075.54a.049.049,0,0,0,.022.045c.015.011.028.006.038-.015a2.454,2.454,0,0,1,1.95-.825A2.313,2.313,0,0,1,177.012,295.569Z" fill="#b0aea7"/>
      <path id="パス_36" data-name="パス 36" d="M179.862,302.26a2.524,2.524,0,0,1-.892-1.569,4.87,4.87,0,0,1-.06-.824,8,8,0,0,1,.06-.991,6.787,6.787,0,0,1,.449-1.815,3.259,3.259,0,0,1,1.261-1.529,3.5,3.5,0,0,1,1.965-.571,2.927,2.927,0,0,1,1.837.571,2.189,2.189,0,0,1,.878,1.439,2.212,2.212,0,0,1,.059.495.153.153,0,0,1-.149.151l-1.11.165h-.031c-.08,0-.119-.046-.119-.136l-.031-.239a1.229,1.229,0,0,0-.449-.856,1.568,1.568,0,0,0-1.051-.344,1.814,1.814,0,0,0-1.109.344,1.948,1.948,0,0,0-.675.915,6.354,6.354,0,0,0-.316,1.425,7.77,7.77,0,0,0-.059.931,4.4,4.4,0,0,0,.03.48,1.474,1.474,0,0,0,.45.945,1.447,1.447,0,0,0,1.02.345,1.917,1.917,0,0,0,1.132-.353,1.747,1.747,0,0,0,.683-.892l.03-.076a.081.081,0,0,1,.015-.059.115.115,0,0,1,.06-.083.148.148,0,0,1,.1-.007l1.065.18c.08.02.114.059.1.12a.087.087,0,0,1-.015.059,3.177,3.177,0,0,1-.1.331,3.105,3.105,0,0,1-1.253,1.47,3.614,3.614,0,0,1-1.973.555A2.777,2.777,0,0,1,179.862,302.26Z" fill="#b0aea7"/>
      <path id="パス_37" data-name="パス 37" d="M187.362,302.274a2.5,2.5,0,0,1-.923-1.567,5.005,5.005,0,0,1-.089-1.005,7.484,7.484,0,0,1,.045-.826,6.259,6.259,0,0,1,.48-1.8,3.459,3.459,0,0,1,1.3-1.553,3.562,3.562,0,0,1,1.98-.563,2.729,2.729,0,0,1,1.755.563,2.6,2.6,0,0,1,.915,1.537,4.62,4.62,0,0,1,.089.96,8.131,8.131,0,0,1-.044.84,6.181,6.181,0,0,1-.48,1.846,3.566,3.566,0,0,1-1.306,1.567,3.415,3.415,0,0,1-1.92.563A2.867,2.867,0,0,1,187.362,302.274Zm3.037-1.02a2.123,2.123,0,0,0,.736-.952,6.072,6.072,0,0,0,.329-1.411c.04-.439.06-.75.06-.93a4.251,4.251,0,0,0-.029-.464,1.609,1.609,0,0,0-.518-.954,1.514,1.514,0,0,0-1.013-.336,1.836,1.836,0,0,0-1.079.336,2.212,2.212,0,0,0-.75.954,5.776,5.776,0,0,0-.33,1.394,6.864,6.864,0,0,0-.045.781,3.768,3.768,0,0,0,.045.63,1.48,1.48,0,0,0,.5.945,1.514,1.514,0,0,0,1.019.345A1.831,1.831,0,0,0,190.4,301.254Z" fill="#b0aea7"/>
      <path id="パス_38" data-name="パス 38" d="M200,292.261a.159.159,0,0,1,.12-.045h1.094a.138.138,0,0,1,.113.045.118.118,0,0,1,.023.106l-1.261,10.2a.142.142,0,0,1-.045.106.159.159,0,0,1-.12.045H198.83c-.091,0-.136-.05-.136-.151l.06-.494c.01-.02.008-.035-.007-.046s-.033-.005-.053.016a2.454,2.454,0,0,1-.824.593,2.42,2.42,0,0,1-.975.2,2.522,2.522,0,0,1-1.681-.532,2.557,2.557,0,0,1-.824-1.508,4.333,4.333,0,0,1-.1-1.021,6.246,6.246,0,0,1,.06-.9,6.549,6.549,0,0,1,.465-1.815A3.552,3.552,0,0,1,196,295.516a3.089,3.089,0,0,1,1.852-.555,2.067,2.067,0,0,1,.923.2,1.805,1.805,0,0,1,.682.578c.02.019.038.024.053.014a.049.049,0,0,0,.023-.045l.42-3.344A.148.148,0,0,1,200,292.261Zm-.886,6.63a6.013,6.013,0,0,0,.06-.854,2.744,2.744,0,0,0-.179-1.066,1.175,1.175,0,0,0-1.141-.764,1.672,1.672,0,0,0-1.4.719,4.117,4.117,0,0,0-.705,1.981,6.969,6.969,0,0,0-.045.735,3.046,3.046,0,0,0,.181,1.125,1.184,1.184,0,0,0,.48.615,1.483,1.483,0,0,0,.81.21,1.636,1.636,0,0,0,1.38-.81A4.387,4.387,0,0,0,199.114,298.891Z" fill="#b0aea7"/>
      <path id="パス_39" data-name="パス 39" d="M208.43,299.327a.149.149,0,0,1-.165.15h-4.65a.053.053,0,0,0-.06.06c-.02.239-.031.4-.031.48a1.511,1.511,0,0,0,.031.3,1.329,1.329,0,0,0,.517.938,1.921,1.921,0,0,0,1.193.338,2.152,2.152,0,0,0,1.77-.915c.06-.1.125-.115.194-.045l.766.57a.135.135,0,0,1,.015.194,3.352,3.352,0,0,1-1.29,1.074,3.964,3.964,0,0,1-1.741.382,2.9,2.9,0,0,1-1.725-.473,2.5,2.5,0,0,1-.929-1.372,4.275,4.275,0,0,1-.15-1.2c0-.19.019-.505.06-.946.05-.38.1-.7.157-.96a3.759,3.759,0,0,1,.218-.7,3.414,3.414,0,0,1,1.244-1.636,3.369,3.369,0,0,1,1.98-.6,2.618,2.618,0,0,1,2.078.736,3.183,3.183,0,0,1,.638,2.144A12.857,12.857,0,0,1,208.43,299.327Zm-3.818-2.8a1.99,1.99,0,0,0-.667.862,4.127,4.127,0,0,0-.225.84c-.011.04.005.061.045.061h3.33a.054.054,0,0,0,.06-.061c.019-.239.03-.4.03-.48a1.574,1.574,0,0,0-.4-1.117,1.43,1.43,0,0,0-1.1-.427A1.773,1.773,0,0,0,204.612,296.529Z" fill="#b0aea7"/>
      <path id="パス_40" data-name="パス 40" d="M215.54,292.261a.159.159,0,0,1,.12-.045h1.094a.138.138,0,0,1,.113.045.118.118,0,0,1,.023.106l-1.261,10.2a.142.142,0,0,1-.045.106.159.159,0,0,1-.12.045H214.37c-.091,0-.136-.05-.136-.151l.06-.494c.01-.02.008-.035-.007-.046s-.033-.005-.053.016a2.454,2.454,0,0,1-.824.593,2.42,2.42,0,0,1-.975.2,2.522,2.522,0,0,1-1.681-.532,2.557,2.557,0,0,1-.824-1.508,4.333,4.333,0,0,1-.1-1.021,6.246,6.246,0,0,1,.06-.9,6.549,6.549,0,0,1,.465-1.815,3.552,3.552,0,0,1,1.192-1.545,3.09,3.09,0,0,1,1.853-.555,2.066,2.066,0,0,1,.922.2,1.816,1.816,0,0,1,.683.578c.02.019.037.024.052.014a.049.049,0,0,0,.023-.045l.42-3.344A.148.148,0,0,1,215.54,292.261Zm-.886,6.63a6.015,6.015,0,0,0,.06-.854,2.744,2.744,0,0,0-.179-1.066,1.175,1.175,0,0,0-1.14-.764,1.669,1.669,0,0,0-1.4.719,4.117,4.117,0,0,0-.706,1.981,6.945,6.945,0,0,0-.044.735,3.048,3.048,0,0,0,.18,1.125,1.184,1.184,0,0,0,.48.615,1.483,1.483,0,0,0,.81.21,1.634,1.634,0,0,0,1.38-.81A4.388,4.388,0,0,0,214.654,298.891Z" fill="#b0aea7"/>
      <path id="パス_41" data-name="パス 41" d="M224.569,296.266h-1.575a.054.054,0,0,0-.06.061l-.5,3.975a2.12,2.12,0,0,0-.015.285.855.855,0,0,0,.247.689,1.147,1.147,0,0,0,.758.21h.42a.136.136,0,0,1,.112.046.113.113,0,0,1,.023.1l-.12.929a.133.133,0,0,1-.15.151c-.32.019-.545.03-.675.03a2.859,2.859,0,0,1-1.515-.323,1.283,1.283,0,0,1-.51-1.177q0-.135.03-.435l.555-4.485a.054.054,0,0,0-.06-.061h-.885c-.1,0-.14-.05-.12-.149l.105-.886a.158.158,0,0,1,.165-.149h.885a.054.054,0,0,0,.06-.061l.225-1.77a.16.16,0,0,1,.165-.15h1.05a.126.126,0,0,1,.1.045.112.112,0,0,1,.022.105l-.21,1.77c-.01.011-.01.022,0,.038a.051.051,0,0,0,.045.023h1.575c.1,0,.14.049.12.149l-.105.886A.159.159,0,0,1,224.569,296.266Z" fill="#b0aea7"/>
      <path id="パス_42" data-name="パス 42" d="M231.431,295.569a2.148,2.148,0,0,1,.608,1.612c0,.09-.01.236-.03.436l-.6,4.949a.235.235,0,0,1-.06.106.144.144,0,0,1-.1.045h-1.11c-.091,0-.135-.05-.135-.151l.584-4.665a1.635,1.635,0,0,0,.016-.27,1.446,1.446,0,0,0-.36-1.02,1.282,1.282,0,0,0-.99-.39,1.662,1.662,0,0,0-1.193.465,1.926,1.926,0,0,0-.577,1.2l-.57,4.68a.16.16,0,0,1-.165.151h-1.11c-.1,0-.14-.05-.12-.151l1.245-10.2c.02-.1.074-.151.165-.151h1.11c.1,0,.14.05.12.151l-.42,3.4a.049.049,0,0,0,.022.045c.015.011.028.006.037-.015a2.458,2.458,0,0,1,1.951-.825A2.313,2.313,0,0,1,231.431,295.569Z" fill="#b0aea7"/>
      <path id="パス_43" data-name="パス 43" d="M233.374,302.552l.9-7.321a.151.151,0,0,1,.045-.1.145.145,0,0,1,.105-.044h1.11c.091,0,.135.049.135.149l-.9,7.321a.161.161,0,0,1-.165.15h-1.11C233.394,302.7,233.353,302.652,233.374,302.552Zm1.185-8.895a.791.791,0,0,1-.226-.585,1.093,1.093,0,0,1,.308-.8,1.017,1.017,0,0,1,.757-.315.829.829,0,0,1,.6.218.788.788,0,0,1,.225.592,1.081,1.081,0,0,1-.316.788,1.012,1.012,0,0,1-.75.322A.81.81,0,0,1,234.559,293.657Z" fill="#b0aea7"/>
      <path id="パス_44" data-name="パス 44" d="M242.726,295.569a2.147,2.147,0,0,1,.607,1.612c0,.09-.009.236-.029.436l-.6,4.949a.235.235,0,0,1-.06.106.144.144,0,0,1-.1.045h-1.11c-.091,0-.136-.05-.136-.151l.585-4.665a1.636,1.636,0,0,0,.016-.27,1.451,1.451,0,0,0-.36-1.02,1.284,1.284,0,0,0-.991-.39,1.662,1.662,0,0,0-1.192.465,1.927,1.927,0,0,0-.578,1.2l-.569,4.68a.16.16,0,0,1-.165.151h-1.11c-.1,0-.14-.05-.12-.151l.9-7.335a.16.16,0,0,1,.166-.149h1.1a.136.136,0,0,1,.112.044.117.117,0,0,1,.023.1l-.075.54a.049.049,0,0,0,.022.045c.015.011.028.006.037-.015a2.458,2.458,0,0,1,1.951-.825A2.313,2.313,0,0,1,242.726,295.569Z" fill="#b0aea7"/>
      <path id="パス_45" data-name="パス 45" d="M250.158,295.082h1.111c.1,0,.139.049.119.149l-.869,7.1a3.553,3.553,0,0,1-1.313,2.6,4.643,4.643,0,0,1-2.768.78c-.16,0-.4-.011-.72-.03-.09-.01-.13-.066-.12-.165l.165-1.035a.175.175,0,0,1,.068-.113.13.13,0,0,1,.112-.022q.21.015.6.015a2.97,2.97,0,0,0,1.838-.473,2.315,2.315,0,0,0,.757-1.6l.03-.27c0-.06-.025-.07-.075-.031a2.445,2.445,0,0,1-1.875.736,2.74,2.74,0,0,1-1.65-.51,2.209,2.209,0,0,1-.87-1.5,4.79,4.79,0,0,1-.045-.675,10.5,10.5,0,0,1,.076-1.156,7.048,7.048,0,0,1,.464-1.919,3.382,3.382,0,0,1,1.163-1.448,2.924,2.924,0,0,1,1.732-.548,2.152,2.152,0,0,1,1.786.75c.029.05.054.045.074-.014l.045-.466A.158.158,0,0,1,250.158,295.082Zm-.742,4.71c.035-.17.083-.48.142-.931.06-.539.09-.885.09-1.034a3.2,3.2,0,0,0-.03-.361,1.376,1.376,0,0,0-.4-.907,1.333,1.333,0,0,0-.975-.352,1.683,1.683,0,0,0-1.057.352,2.235,2.235,0,0,0-.7.907,4.258,4.258,0,0,0-.33,1.395q-.075.677-.075.961a1.716,1.716,0,0,0,.046.449,1.439,1.439,0,0,0,.464.909,1.425,1.425,0,0,0,.99.352,1.7,1.7,0,0,0,1.08-.352,1.864,1.864,0,0,0,.631-.909A4.329,4.329,0,0,0,249.416,299.792Z" fill="#b0aea7"/>
      <path id="パス_46" data-name="パス 46" d="M252.821,302.282a1.588,1.588,0,0,1-.728-1.335.887.887,0,0,1,.015-.195l.03-.165a.145.145,0,0,1,.046-.106.162.162,0,0,1,.119-.044h1.035a.142.142,0,0,1,.113.044.115.115,0,0,1,.022.106l-.015.075a.8.8,0,0,0,.36.734,1.713,1.713,0,0,0,1.08.316,1.943,1.943,0,0,0,1.155-.322.957.957,0,0,0,.45-.8.646.646,0,0,0-.352-.593,5.593,5.593,0,0,0-1.118-.428,9.7,9.7,0,0,1-1.26-.449,2.386,2.386,0,0,1-.839-.631,1.513,1.513,0,0,1-.346-1.02,2.15,2.15,0,0,1,.863-1.793,3.516,3.516,0,0,1,2.213-.667,3.06,3.06,0,0,1,1.889.533,1.659,1.659,0,0,1,.7,1.387,1.367,1.367,0,0,1-.015.241l-.014.044a.154.154,0,0,1-.15.15h-1.02a.138.138,0,0,1-.113-.045.112.112,0,0,1-.023-.105l.015-.044a.773.773,0,0,0-.337-.728,1.761,1.761,0,0,0-1.088-.293,2.069,2.069,0,0,0-1.125.277.86.86,0,0,0-.434.758.661.661,0,0,0,.359.6,5.8,5.8,0,0,0,1.141.449,11.68,11.68,0,0,1,1.275.436,2.287,2.287,0,0,1,.847.615,1.516,1.516,0,0,1,.352,1.034,2.215,2.215,0,0,1-.4,1.313,2.55,2.55,0,0,1-1.117.87,4.132,4.132,0,0,1-1.636.308A3.278,3.278,0,0,1,252.821,302.282Z" fill="#b0aea7"/>
    </g>
    <g id="グループ_6" data-name="グループ 6">
      <path id="パス_47" data-name="パス 47" d="M610.005,188.566l2.04,5.755h4.08l-8.374-21.741h-2.068v3.745h.058L609,185.673Z" fill="#333232"/>
      <g id="グループ_5" data-name="グループ 5">
        <path id="パス_48" data-name="パス 48" d="M649.732,194.068a1.481,1.481,0,1,1-1.481,1.48,1.482,1.482,0,0,1,1.481-1.48m0-1a2.481,2.481,0,1,0,2.48,2.48,2.48,2.48,0,0,0-2.48-2.48Z" fill="#b0aea7"/>
      </g>
      <path id="パス_49" data-name="パス 49" d="M527.272,185.795l-8.161-13.216h4.415l5.755,9.744,5.664-9.744h4.263l-8.13,13.216v8.526h-3.806Z" fill="#333232"/>
      <path id="パス_50" data-name="パス 50" d="M574.819,172.579h4.019l9.927,16.017h.061V172.579h3.624v21.742h-4.02l-9.9-15.987h-.091v15.987h-3.624Z" fill="#333232"/>
      <path id="パス_51" data-name="パス 51" d="M640.027,172.579h3.806v21.742h-3.806Z" fill="#333232"/>
      <path id="パス_52" data-name="パス 52" d="M602.362,185.673l3.289-9.348h.034v-3.745H603.7l-8.343,21.741h3.928l2.04-5.755Z" fill="#333232"/>
      <path id="パス_53" data-name="パス 53" d="M556.335,175.6a18.589,18.589,0,0,1,.211-2.8h-3.711a22.24,22.24,0,0,0,22.05,25.025v-3.675A18.571,18.571,0,0,1,556.335,175.6Z" fill="#333232"/>
      <path id="パス_54" data-name="パス 54" d="M553.01,172.8H549.3a18.553,18.553,0,0,1-18.338,21.35v3.675A22.226,22.226,0,0,0,553.185,175.6,22.49,22.49,0,0,0,553.01,172.8Z" fill="#333232"/>
      <rect id="長方形_4" data-name="長方形 4" width="3.6" height="3.5" transform="translate(527.385 194.396)" fill="#faab15"/>
      <rect id="長方形_5" data-name="長方形 5" width="69.127" height="3.543" transform="translate(574.854 194.273)" fill="#faab15"/>
      <path id="パス_55" data-name="パス 55" d="M635.886,194.321H633.45l-.579-2.558a9.035,9.035,0,0,1-3.045,2.4,8.612,8.612,0,0,1-3.5.67,10.249,10.249,0,0,1-4.37-.9,9.6,9.6,0,0,1-3.273-2.451,10.947,10.947,0,0,1-2.056-3.624,13.9,13.9,0,0,1,0-8.8,10.952,10.952,0,0,1,2.056-3.623,9.773,9.773,0,0,1,3.273-2.467,10.106,10.106,0,0,1,4.37-.913,11.8,11.8,0,0,1,3.364.472,8.99,8.99,0,0,1,2.847,1.4,7.761,7.761,0,0,1,2.071,2.33,8.168,8.168,0,0,1,1.035,3.228h-3.715a4.659,4.659,0,0,0-1.918-3.228,5.522,5.522,0,0,0-1.7-.822,7.056,7.056,0,0,0-1.979-.274,6.1,6.1,0,0,0-3,.7,5.892,5.892,0,0,0-2.055,1.873A8.425,8.425,0,0,0,620.1,180.4a12.357,12.357,0,0,0,0,6.09,8.415,8.415,0,0,0,1.172,2.664,5.873,5.873,0,0,0,2.055,1.873,6.1,6.1,0,0,0,3,.7,7.076,7.076,0,0,0,2.588-.38,5.137,5.137,0,0,0,1.9-1.188,4.973,4.973,0,0,0,1.172-1.9,8.045,8.045,0,0,0,.427-2.5h-5.786v-2.892h9.257Z" fill="#333232"/>
    </g>
    <g id="グループ_7" data-name="グループ 7">
      <path id="パス_56" data-name="パス 56" d="M520.929,217.732a2.043,2.043,0,0,1-.627-1.573c0-.073.007-.2.022-.374l.352-2.848a2.826,2.826,0,0,1,.484-1.315,2.7,2.7,0,0,1,1.024-.88,3.074,3.074,0,0,1,1.4-.314,2.445,2.445,0,0,1,1.693.561,1.935,1.935,0,0,1,.627,1.518c0,.074-.006.191-.021.352v.011c-.015.081-.055.121-.121.121l-.815.044c-.072,0-.1-.033-.1-.1V212.9a2.48,2.48,0,0,0,.022-.253,1.244,1.244,0,0,0-.38-.951,1.42,1.42,0,0,0-1.017-.358A1.725,1.725,0,0,0,521.7,212.9l-.363,2.926a1.65,1.65,0,0,0-.012.232,1.283,1.283,0,0,0,.375.967,1.417,1.417,0,0,0,1.033.363,1.724,1.724,0,0,0,1.189-.429,1.744,1.744,0,0,0,.572-1.133v-.022a.113.113,0,0,1,.12-.1l.8.044c.073,0,.1.037.088.11a2.771,2.771,0,0,1-.479,1.282,2.643,2.643,0,0,1-1.017.863,3.119,3.119,0,0,1-1.4.308A2.372,2.372,0,0,1,520.929,217.732Z" fill="#b0aea7"/>
      <path id="パス_57" data-name="パス 57" d="M527.336,217.892a1.832,1.832,0,0,1-.676-1.15,3.589,3.589,0,0,1-.066-.737,5.472,5.472,0,0,1,.033-.605,4.6,4.6,0,0,1,.352-1.32,2.526,2.526,0,0,1,.957-1.138,2.617,2.617,0,0,1,1.452-.413,2,2,0,0,1,1.287.413,1.9,1.9,0,0,1,.671,1.127,3.384,3.384,0,0,1,.066.7c0,.2-.012.4-.033.616a4.511,4.511,0,0,1-.352,1.353,2.617,2.617,0,0,1-.957,1.15,2.5,2.5,0,0,1-1.408.412A2.1,2.1,0,0,1,527.336,217.892Zm2.228-.748a1.558,1.558,0,0,0,.54-.7,4.457,4.457,0,0,0,.241-1.034c.029-.322.044-.55.044-.682a3.361,3.361,0,0,0-.022-.341,1.171,1.171,0,0,0-.38-.7,1.108,1.108,0,0,0-.743-.248,1.341,1.341,0,0,0-.791.248,1.646,1.646,0,0,0-.551.7,4.407,4.407,0,0,0-.242,1.023,5.437,5.437,0,0,0-.032.572,2.971,2.971,0,0,0,.032.462,1.091,1.091,0,0,0,.363.693,1.114,1.114,0,0,0,.748.253A1.348,1.348,0,0,0,529.564,217.144Z" fill="#b0aea7"/>
      <path id="パス_58" data-name="パス 58" d="M536.6,210.549a.118.118,0,0,1,.087-.033h.8a.1.1,0,0,1,.083.033.082.082,0,0,1,.016.077l-.924,7.48a.1.1,0,0,1-.033.077.119.119,0,0,1-.088.033h-.8c-.066,0-.1-.036-.1-.11l.045-.363a.024.024,0,0,0-.005-.033c-.012-.007-.024,0-.04.011a1.768,1.768,0,0,1-1.319.583,1.844,1.844,0,0,1-1.232-.39,1.87,1.87,0,0,1-.6-1.106,3.172,3.172,0,0,1-.077-.747,4.733,4.733,0,0,1,.044-.661,4.846,4.846,0,0,1,.341-1.331,2.615,2.615,0,0,1,.874-1.132,2.267,2.267,0,0,1,1.359-.408,1.511,1.511,0,0,1,.676.149,1.331,1.331,0,0,1,.5.423c.015.015.027.019.038.011a.035.035,0,0,0,.018-.033l.306-2.453A.107.107,0,0,1,536.6,210.549Zm-.649,4.862a4.472,4.472,0,0,0,.044-.627,1.994,1.994,0,0,0-.132-.781.861.861,0,0,0-.836-.561,1.222,1.222,0,0,0-1.023.528,3.022,3.022,0,0,0-.518,1.452,5.167,5.167,0,0,0-.032.539,2.231,2.231,0,0,0,.132.825.876.876,0,0,0,.351.451,1.089,1.089,0,0,0,.6.154,1.2,1.2,0,0,0,1.012-.594A3.194,3.194,0,0,0,535.955,215.411Z" fill="#b0aea7"/>
      <path id="パス_59" data-name="パス 59" d="M538.154,218.1l.66-5.367a.108.108,0,0,1,.034-.078.1.1,0,0,1,.077-.033h.813c.067,0,.1.037.1.111l-.66,5.367c-.016.073-.055.11-.121.11h-.815C538.17,218.205,538.14,218.168,538.154,218.1Zm.869-6.523a.584.584,0,0,1-.165-.429.8.8,0,0,1,.226-.582.744.744,0,0,1,.556-.232.61.61,0,0,1,.44.16.578.578,0,0,1,.164.434.8.8,0,0,1-.23.578.744.744,0,0,1-.551.236A.6.6,0,0,1,539.023,211.572Z" fill="#b0aea7"/>
      <path id="パス_60" data-name="パス 60" d="M545.014,212.975a1.576,1.576,0,0,1,.445,1.182c0,.066-.008.173-.022.319l-.441,3.63a.156.156,0,0,1-.043.077.108.108,0,0,1-.078.033h-.813c-.066,0-.1-.036-.1-.11l.429-3.42a1.589,1.589,0,0,0,.01-.2,1.063,1.063,0,0,0-.263-.748.942.942,0,0,0-.727-.286,1.22,1.22,0,0,0-.874.341,1.407,1.407,0,0,0-.423.88l-.418,3.432a.117.117,0,0,1-.121.11h-.814c-.075,0-.1-.036-.088-.11l.66-5.378a.117.117,0,0,1,.121-.111h.8a.1.1,0,0,1,.082.033.086.086,0,0,1,.016.078l-.054.4a.035.035,0,0,0,.016.032c.011.008.02,0,.028-.01a1.8,1.8,0,0,1,1.429-.6A1.7,1.7,0,0,1,545.014,212.975Z" fill="#b0aea7"/>
      <path id="パス_61" data-name="パス 61" d="M550.464,212.617h.813c.075,0,.1.037.088.111l-.636,5.2a2.611,2.611,0,0,1-.963,1.9,3.4,3.4,0,0,1-2.03.572c-.117,0-.294-.007-.528-.022-.066-.007-.1-.048-.089-.121l.121-.759a.127.127,0,0,1,.051-.082.094.094,0,0,1,.082-.017c.1.008.249.012.439.012a2.177,2.177,0,0,0,1.348-.347,1.7,1.7,0,0,0,.556-1.172l.022-.2c0-.044-.019-.051-.055-.022a1.793,1.793,0,0,1-1.375.539,2,2,0,0,1-1.21-.374,1.619,1.619,0,0,1-.638-1.1,3.36,3.36,0,0,1-.033-.5,7.772,7.772,0,0,1,.055-.847,5.224,5.224,0,0,1,.34-1.408,2.486,2.486,0,0,1,.854-1.061,2.14,2.14,0,0,1,1.269-.4,1.58,1.58,0,0,1,1.31.55c.022.037.04.033.055-.011l.033-.34A.117.117,0,0,1,550.464,212.617Zm-.544,3.454c.025-.124.06-.352.1-.682q.067-.594.067-.759a2.541,2.541,0,0,0-.022-.264,1.01,1.01,0,0,0-.3-.665.981.981,0,0,0-.715-.259,1.238,1.238,0,0,0-.776.259,1.648,1.648,0,0,0-.51.665,3.054,3.054,0,0,0-.243,1.023q-.055.495-.055.7a1.254,1.254,0,0,0,.033.33,1.029,1.029,0,0,0,1.067.924,1.24,1.24,0,0,0,.791-.258,1.35,1.35,0,0,0,.463-.666A3.268,3.268,0,0,0,549.92,216.071Z" fill="#b0aea7"/>
      <path id="パス_62" data-name="パス 62" d="M557.2,213.486H556.04a.039.039,0,0,0-.044.044l-.363,2.915a1.615,1.615,0,0,0-.011.209.629.629,0,0,0,.182.506.84.84,0,0,0,.555.154h.309a.1.1,0,0,1,.082.033.084.084,0,0,1,.016.077l-.088.682a.1.1,0,0,1-.11.11c-.234.015-.4.022-.495.022a2.094,2.094,0,0,1-1.11-.236.941.941,0,0,1-.375-.864c0-.066.008-.172.022-.319l.408-3.289a.04.04,0,0,0-.045-.044h-.649c-.073,0-.1-.036-.088-.11l.077-.648c.015-.074.055-.111.121-.111h.65a.038.038,0,0,0,.043-.044l.166-1.3a.116.116,0,0,1,.12-.109h.771a.088.088,0,0,1,.071.032.084.084,0,0,1,.016.077l-.154,1.3c-.008.008-.008.017,0,.028a.037.037,0,0,0,.033.016H557.3c.074,0,.1.037.088.111l-.077.648C557.3,213.45,557.262,213.486,557.2,213.486Z" fill="#b0aea7"/>
      <path id="パス_63" data-name="パス 63" d="M562.229,212.975a1.579,1.579,0,0,1,.445,1.182c0,.066-.008.173-.023.319l-.44,3.63a.164.164,0,0,1-.043.077.108.108,0,0,1-.078.033h-.814c-.065,0-.1-.036-.1-.11l.428-3.42a1.386,1.386,0,0,0,.011-.2,1.064,1.064,0,0,0-.263-.748.942.942,0,0,0-.727-.286,1.22,1.22,0,0,0-.874.341,1.407,1.407,0,0,0-.423.88l-.418,3.432c-.016.074-.056.11-.121.11h-.814c-.075,0-.1-.036-.088-.11l.912-7.48a.117.117,0,0,1,.121-.11h.814c.074,0,.1.037.088.11l-.307,2.5a.033.033,0,0,0,.016.032c.011.008.02,0,.028-.01a1.8,1.8,0,0,1,1.429-.6A1.7,1.7,0,0,1,562.229,212.975Z" fill="#b0aea7"/>
      <path id="パス_64" data-name="パス 64" d="M564.361,217.892a1.831,1.831,0,0,1-.675-1.15,3.584,3.584,0,0,1-.067-.737,5.737,5.737,0,0,1,.033-.605,4.666,4.666,0,0,1,.352-1.32,2.532,2.532,0,0,1,.957-1.138,2.619,2.619,0,0,1,1.452-.413,2,2,0,0,1,1.287.413,1.9,1.9,0,0,1,.671,1.127,3.384,3.384,0,0,1,.066.7,5.971,5.971,0,0,1-.033.616,4.48,4.48,0,0,1-.351,1.353,2.624,2.624,0,0,1-.957,1.15,2.508,2.508,0,0,1-1.409.412A2.1,2.1,0,0,1,564.361,217.892Zm2.229-.748a1.564,1.564,0,0,0,.539-.7,4.463,4.463,0,0,0,.241-1.034c.029-.322.044-.55.044-.682,0-.1-.008-.208-.021-.341a1.181,1.181,0,0,0-.38-.7,1.111,1.111,0,0,0-.743-.248,1.341,1.341,0,0,0-.791.248,1.639,1.639,0,0,0-.551.7,4.306,4.306,0,0,0-.242,1.023,5.194,5.194,0,0,0-.033.572,2.846,2.846,0,0,0,.033.462,1.086,1.086,0,0,0,.363.693,1.111,1.111,0,0,0,.748.253A1.351,1.351,0,0,0,566.59,217.144Z" fill="#b0aea7"/>
      <path id="パス_65" data-name="パス 65" d="M569.752,217.9a1.162,1.162,0,0,1-.534-.979.687.687,0,0,1,.011-.143l.022-.121a.109.109,0,0,1,.032-.077.122.122,0,0,1,.089-.033h.759a.1.1,0,0,1,.082.033.085.085,0,0,1,.017.077l-.011.055a.588.588,0,0,0,.263.54,1.267,1.267,0,0,0,.793.23,1.425,1.425,0,0,0,.847-.236.7.7,0,0,0,.329-.589.474.474,0,0,0-.258-.434,4.034,4.034,0,0,0-.819-.314,7.044,7.044,0,0,1-.925-.33,1.737,1.737,0,0,1-.615-.462,1.109,1.109,0,0,1-.253-.748,1.574,1.574,0,0,1,.632-1.314,2.578,2.578,0,0,1,1.623-.489,2.242,2.242,0,0,1,1.386.39,1.217,1.217,0,0,1,.516,1.017,1.37,1.37,0,0,1-.009.176l-.012.033a.115.115,0,0,1-.11.111h-.748a.1.1,0,0,1-.083-.034.082.082,0,0,1-.016-.077l.011-.033a.565.565,0,0,0-.248-.533,1.289,1.289,0,0,0-.8-.215,1.514,1.514,0,0,0-.827.2.628.628,0,0,0-.318.555.483.483,0,0,0,.264.44,4.2,4.2,0,0,0,.836.33,8.711,8.711,0,0,1,.935.319,1.7,1.7,0,0,1,.621.451,1.119,1.119,0,0,1,.259.76,1.628,1.628,0,0,1-.292.962,1.871,1.871,0,0,1-.819.638,3.033,3.033,0,0,1-1.2.225A2.4,2.4,0,0,1,569.752,217.9Z" fill="#b0aea7"/>
      <path id="パス_66" data-name="パス 66" d="M579.107,215.73a.108.108,0,0,1-.121.11h-3.41a.04.04,0,0,0-.045.044c-.013.177-.021.294-.021.352a1.272,1.272,0,0,0,.021.221.978.978,0,0,0,.381.687,1.4,1.4,0,0,0,.874.247,1.578,1.578,0,0,0,1.3-.671c.044-.073.092-.084.143-.032l.561.417a.1.1,0,0,1,.011.144,2.452,2.452,0,0,1-.945.786,2.914,2.914,0,0,1-1.278.28,2.126,2.126,0,0,1-1.264-.346,1.84,1.84,0,0,1-.682-1.007,3.14,3.14,0,0,1-.11-.879q0-.21.044-.694c.037-.278.075-.513.116-.7a2.743,2.743,0,0,1,.159-.518,2.5,2.5,0,0,1,.913-1.2,2.466,2.466,0,0,1,1.452-.44,1.922,1.922,0,0,1,1.524.539,2.341,2.341,0,0,1,.467,1.573A9.328,9.328,0,0,1,579.107,215.73Zm-2.8-2.051a1.445,1.445,0,0,0-.49.633,3.116,3.116,0,0,0-.166.615c-.006.03,0,.044.034.044h2.442a.039.039,0,0,0,.044-.044c.015-.176.021-.293.021-.352a1.151,1.151,0,0,0-.291-.819,1.049,1.049,0,0,0-.808-.314A1.293,1.293,0,0,0,576.308,213.679Z" fill="#b0aea7"/>
      <path id="パス_67" data-name="パス 67" d="M585.949,212.65a.119.119,0,0,1,.088-.033h.791a.1.1,0,0,1,.083.033.081.081,0,0,1,.017.078l-.66,5.378a.117.117,0,0,1-.122.11h-.8c-.073,0-.1-.036-.088-.11l.044-.407q.011-.021-.006-.027c-.011,0-.023,0-.038.016a1.722,1.722,0,0,1-1.4.6,1.871,1.871,0,0,1-1.232-.407,1.4,1.4,0,0,1-.495-1.144,2.15,2.15,0,0,1,.011-.263l.461-3.751a.118.118,0,0,1,.122-.111h.8a.089.089,0,0,1,.088.111l-.418,3.42a1.537,1.537,0,0,0-.012.22,1.037,1.037,0,0,0,.254.743.945.945,0,0,0,.725.269,1.256,1.256,0,0,0,.9-.335,1.4,1.4,0,0,0,.424-.9l.43-3.42A.107.107,0,0,1,585.949,212.65Z" fill="#b0aea7"/>
      <path id="パス_68" data-name="パス 68" d="M591.993,212.975a1.576,1.576,0,0,1,.445,1.182,3.144,3.144,0,0,1-.022.319l-.439,3.63a.165.165,0,0,1-.044.077.108.108,0,0,1-.078.033h-.814c-.065,0-.1-.036-.1-.11l.429-3.42a1.216,1.216,0,0,0,.012-.2,1.06,1.06,0,0,0-.264-.748.943.943,0,0,0-.726-.286,1.221,1.221,0,0,0-.875.341,1.407,1.407,0,0,0-.423.88l-.418,3.432a.117.117,0,0,1-.121.11h-.814c-.074,0-.1-.036-.089-.11l.66-5.378a.118.118,0,0,1,.122-.111h.8a.1.1,0,0,1,.083.033.083.083,0,0,1,.016.078l-.055.4a.036.036,0,0,0,.017.032c.011.008.02,0,.028-.01a1.8,1.8,0,0,1,1.43-.6A1.7,1.7,0,0,1,591.993,212.975Z" fill="#b0aea7"/>
      <path id="パス_69" data-name="パス 69" d="M594.083,217.881a1.852,1.852,0,0,1-.655-1.15,3.524,3.524,0,0,1-.043-.6,5.74,5.74,0,0,1,.043-.726,4.977,4.977,0,0,1,.33-1.331,2.389,2.389,0,0,1,.925-1.122,2.563,2.563,0,0,1,1.44-.418,2.149,2.149,0,0,1,1.348.418,1.6,1.6,0,0,1,.643,1.056,1.553,1.553,0,0,1,.044.363.113.113,0,0,1-.109.11l-.815.121h-.021c-.059,0-.088-.033-.088-.1l-.022-.177a.9.9,0,0,0-.331-.627,1.15,1.15,0,0,0-.77-.253,1.334,1.334,0,0,0-.814.253,1.44,1.44,0,0,0-.495.671,4.587,4.587,0,0,0-.23,1.045,5.775,5.775,0,0,0-.045.682,3.4,3.4,0,0,0,.022.352,1.084,1.084,0,0,0,.331.693,1.057,1.057,0,0,0,.748.253,1.418,1.418,0,0,0,.831-.258,1.292,1.292,0,0,0,.5-.654l.021-.056a.061.061,0,0,1,.012-.044.084.084,0,0,1,.043-.06.113.113,0,0,1,.078-.006l.78.132c.059.015.085.044.077.088a.072.072,0,0,1-.01.044c-.008.037-.034.118-.078.242a2.274,2.274,0,0,1-.918,1.078,2.655,2.655,0,0,1-1.447.407A2.039,2.039,0,0,1,594.083,217.881Z" fill="#b0aea7"/>
      <path id="パス_70" data-name="パス 70" d="M599.583,217.892a1.838,1.838,0,0,1-.677-1.15,3.659,3.659,0,0,1-.066-.737,5.737,5.737,0,0,1,.033-.605,4.632,4.632,0,0,1,.353-1.32,2.52,2.52,0,0,1,.957-1.138,2.612,2.612,0,0,1,1.452-.413,2,2,0,0,1,1.287.413,1.9,1.9,0,0,1,.67,1.127,3.314,3.314,0,0,1,.066.7,5.988,5.988,0,0,1-.033.616,4.513,4.513,0,0,1-.352,1.353,2.618,2.618,0,0,1-.957,1.15,2.5,2.5,0,0,1-1.408.412A2.1,2.1,0,0,1,599.583,217.892Zm2.228-.748a1.563,1.563,0,0,0,.539-.7,4.51,4.51,0,0,0,.242-1.034c.029-.322.043-.55.043-.682a3.085,3.085,0,0,0-.022-.341,1.175,1.175,0,0,0-.379-.7,1.109,1.109,0,0,0-.743-.248,1.346,1.346,0,0,0-.792.248,1.637,1.637,0,0,0-.55.7,4.354,4.354,0,0,0-.242,1.023,5.186,5.186,0,0,0-.032.572,2.856,2.856,0,0,0,.032.462,1.079,1.079,0,0,0,.364.693,1.111,1.111,0,0,0,.748.253A1.345,1.345,0,0,0,601.811,217.144Z" fill="#b0aea7"/>
      <path id="パス_71" data-name="パス 71" d="M608.85,210.549a.118.118,0,0,1,.087-.033h.8a.1.1,0,0,1,.083.033.082.082,0,0,1,.016.077l-.924,7.48a.1.1,0,0,1-.033.077.118.118,0,0,1-.088.033h-.8c-.066,0-.1-.036-.1-.11l.044-.363a.024.024,0,0,0-.005-.033c-.012-.007-.024,0-.039.011a1.772,1.772,0,0,1-1.32.583,1.846,1.846,0,0,1-1.232-.39,1.87,1.87,0,0,1-.6-1.106,3.224,3.224,0,0,1-.077-.747,4.732,4.732,0,0,1,.044-.661,4.879,4.879,0,0,1,.341-1.331,2.615,2.615,0,0,1,.874-1.132,2.267,2.267,0,0,1,1.359-.408,1.512,1.512,0,0,1,.676.149,1.331,1.331,0,0,1,.5.423c.015.015.027.019.038.011a.035.035,0,0,0,.018-.033l.306-2.453A.107.107,0,0,1,608.85,210.549Zm-.649,4.862a4.472,4.472,0,0,0,.044-.627,1.994,1.994,0,0,0-.132-.781.861.861,0,0,0-.836-.561,1.224,1.224,0,0,0-1.023.528,3.031,3.031,0,0,0-.518,1.452,5.168,5.168,0,0,0-.032.539,2.231,2.231,0,0,0,.132.825.876.876,0,0,0,.351.451,1.088,1.088,0,0,0,.595.154,1.2,1.2,0,0,0,1.012-.594A3.194,3.194,0,0,0,608.2,215.411Z" fill="#b0aea7"/>
      <path id="パス_72" data-name="パス 72" d="M615.032,215.73a.108.108,0,0,1-.121.11H611.5a.039.039,0,0,0-.044.044c-.015.177-.021.294-.021.352a1.106,1.106,0,0,0,.021.221.977.977,0,0,0,.38.687,1.4,1.4,0,0,0,.874.247,1.581,1.581,0,0,0,1.3-.671c.043-.073.091-.084.142-.032l.561.417a.1.1,0,0,1,.012.144,2.458,2.458,0,0,1-.947.786,2.9,2.9,0,0,1-1.276.28,2.125,2.125,0,0,1-1.265-.346,1.84,1.84,0,0,1-.682-1.007,3.14,3.14,0,0,1-.11-.879q0-.21.044-.694c.036-.278.075-.513.115-.7a2.82,2.82,0,0,1,.16-.518,2.509,2.509,0,0,1,.914-1.2,2.463,2.463,0,0,1,1.451-.44,1.918,1.918,0,0,1,1.523.539,2.33,2.33,0,0,1,.468,1.573A9.328,9.328,0,0,1,615.032,215.73Zm-2.8-2.051a1.458,1.458,0,0,0-.489.633,3.118,3.118,0,0,0-.165.615c-.008.03,0,.044.033.044h2.442a.039.039,0,0,0,.045-.044c.013-.176.021-.293.021-.352a1.16,1.16,0,0,0-.291-.819,1.052,1.052,0,0,0-.808-.314A1.3,1.3,0,0,0,612.232,213.679Z" fill="#b0aea7"/>
      <path id="パス_73" data-name="パス 73" d="M620.246,210.549a.118.118,0,0,1,.088-.033h.8a.1.1,0,0,1,.083.033.085.085,0,0,1,.016.077l-.924,7.48a.1.1,0,0,1-.033.077.118.118,0,0,1-.088.033h-.8c-.067,0-.1-.036-.1-.11l.044-.363a.024.024,0,0,0-.005-.033c-.012-.007-.024,0-.039.011a1.791,1.791,0,0,1-.6.435,1.768,1.768,0,0,1-.715.148,1.85,1.85,0,0,1-1.233-.39,1.879,1.879,0,0,1-.6-1.106,3.171,3.171,0,0,1-.077-.747,4.583,4.583,0,0,1,.045-.661,4.845,4.845,0,0,1,.339-1.331,2.624,2.624,0,0,1,.875-1.132,2.265,2.265,0,0,1,1.359-.408,1.519,1.519,0,0,1,.677.149,1.328,1.328,0,0,1,.5.423c.015.015.027.019.039.011a.038.038,0,0,0,.016-.033l.308-2.453A.11.11,0,0,1,620.246,210.549Zm-.648,4.862a4.473,4.473,0,0,0,.043-.627,2,2,0,0,0-.131-.781.863.863,0,0,0-.837-.561,1.224,1.224,0,0,0-1.023.528,3.021,3.021,0,0,0-.517,1.452,4.932,4.932,0,0,0-.033.539,2.253,2.253,0,0,0,.132.825.873.873,0,0,0,.352.451,1.08,1.08,0,0,0,.594.154,1.2,1.2,0,0,0,1.011-.594A3.193,3.193,0,0,0,619.6,215.411Z" fill="#b0aea7"/>
      <path id="パス_74" data-name="パス 74" d="M626.867,213.486h-1.154a.04.04,0,0,0-.045.044l-.362,2.915a1.614,1.614,0,0,0-.011.209.626.626,0,0,0,.182.506.838.838,0,0,0,.554.154h.309a.1.1,0,0,1,.082.033.084.084,0,0,1,.016.077l-.087.682a.1.1,0,0,1-.111.11c-.234.015-.4.022-.494.022a2.1,2.1,0,0,1-1.111-.236.941.941,0,0,1-.374-.864c0-.066.007-.172.022-.319l.406-3.289a.038.038,0,0,0-.043-.044H624c-.072,0-.1-.036-.088-.11l.078-.648a.117.117,0,0,1,.12-.111h.65a.039.039,0,0,0,.044-.044l.165-1.3a.116.116,0,0,1,.121-.109h.769a.092.092,0,0,1,.073.032.084.084,0,0,1,.015.077l-.154,1.3a.021.021,0,0,0,0,.028.038.038,0,0,0,.033.016h1.156q.109,0,.087.111l-.077.648A.115.115,0,0,1,626.867,213.486Z" fill="#b0aea7"/>
      <path id="パス_75" data-name="パス 75" d="M631.9,212.975a1.576,1.576,0,0,1,.446,1.182c0,.066-.008.173-.022.319l-.44,3.63a.165.165,0,0,1-.044.077.106.106,0,0,1-.077.033h-.814c-.066,0-.1-.036-.1-.11l.429-3.42a1.408,1.408,0,0,0,.01-.2,1.06,1.06,0,0,0-.264-.748.939.939,0,0,0-.725-.286,1.218,1.218,0,0,0-.874.341,1.408,1.408,0,0,0-.424.88l-.418,3.432c-.016.074-.055.11-.121.11h-.815c-.073,0-.1-.036-.087-.11l.913-7.48a.117.117,0,0,1,.121-.11h.813c.074,0,.1.037.088.11l-.307,2.5a.035.035,0,0,0,.016.032c.012.008.021,0,.027-.01a1.8,1.8,0,0,1,1.43-.6A1.694,1.694,0,0,1,631.9,212.975Z" fill="#b0aea7"/>
      <path id="パス_76" data-name="パス 76" d="M633.324,218.1l.66-5.367a.108.108,0,0,1,.034-.078.105.105,0,0,1,.078-.033h.812c.067,0,.1.037.1.111l-.66,5.367a.117.117,0,0,1-.121.11h-.815C633.34,218.205,633.31,218.168,633.324,218.1Zm.869-6.523a.584.584,0,0,1-.164-.429.8.8,0,0,1,.225-.582.744.744,0,0,1,.557-.232.6.6,0,0,1,.439.16.578.578,0,0,1,.164.434.8.8,0,0,1-.23.578.743.743,0,0,1-.549.236A.6.6,0,0,1,634.193,211.572Z" fill="#b0aea7"/>
      <path id="パス_77" data-name="パス 77" d="M640.184,212.975a1.58,1.58,0,0,1,.445,1.182c0,.066-.008.173-.022.319l-.441,3.63a.164.164,0,0,1-.043.077.11.11,0,0,1-.078.033h-.813c-.066,0-.1-.036-.1-.11l.428-3.42a1.376,1.376,0,0,0,.011-.2,1.064,1.064,0,0,0-.263-.748.942.942,0,0,0-.727-.286,1.223,1.223,0,0,0-.875.341,1.406,1.406,0,0,0-.422.88l-.418,3.432a.117.117,0,0,1-.121.11h-.814c-.075,0-.1-.036-.088-.11l.66-5.378a.117.117,0,0,1,.121-.111h.8a.1.1,0,0,1,.082.033.092.092,0,0,1,.017.078l-.056.4a.036.036,0,0,0,.017.032c.01.008.02,0,.028-.01a1.8,1.8,0,0,1,1.429-.6A1.7,1.7,0,0,1,640.184,212.975Z" fill="#b0aea7"/>
      <path id="パス_78" data-name="パス 78" d="M645.633,212.617h.814c.073,0,.1.037.088.111l-.639,5.2a2.6,2.6,0,0,1-.96,1.9,3.409,3.409,0,0,1-2.032.572c-.117,0-.293-.007-.527-.022-.066-.007-.1-.048-.088-.121l.121-.759a.129.129,0,0,1,.049-.082.1.1,0,0,1,.084-.017c.1.008.248.012.439.012a2.177,2.177,0,0,0,1.348-.347,1.7,1.7,0,0,0,.555-1.172l.023-.2c0-.044-.019-.051-.056-.022a1.79,1.79,0,0,1-1.375.539,2,2,0,0,1-1.209-.374,1.613,1.613,0,0,1-.639-1.1,3.5,3.5,0,0,1-.033-.5,8.265,8.265,0,0,1,.054-.847,5.254,5.254,0,0,1,.342-1.408,2.486,2.486,0,0,1,.854-1.061,2.138,2.138,0,0,1,1.269-.4,1.577,1.577,0,0,1,1.309.55c.021.037.041.033.055-.011l.033-.34C645.527,212.654,645.566,212.617,645.633,212.617Zm-.545,3.454c.027-.124.06-.352.1-.682.043-.4.067-.649.067-.759a2.167,2.167,0,0,0-.024-.264,1,1,0,0,0-.3-.665.977.977,0,0,0-.714-.259,1.243,1.243,0,0,0-.776.259,1.671,1.671,0,0,0-.512.665,3.157,3.157,0,0,0-.242,1.023c-.035.33-.054.565-.054.7a1.3,1.3,0,0,0,.033.33,1.052,1.052,0,0,0,.342.666,1.037,1.037,0,0,0,.726.258,1.248,1.248,0,0,0,.791-.258,1.35,1.35,0,0,0,.463-.666A3.521,3.521,0,0,0,645.088,216.071Z" fill="#b0aea7"/>
      <path id="パス_79" data-name="パス 79" d="M647.586,217.9a1.161,1.161,0,0,1-.533-.979.921.921,0,0,1,.009-.143l.024-.121a.1.1,0,0,1,.033-.077.118.118,0,0,1,.088-.033h.758a.1.1,0,0,1,.082.033.08.08,0,0,1,.017.077l-.011.055a.588.588,0,0,0,.263.54,1.269,1.269,0,0,0,.793.23,1.431,1.431,0,0,0,.848-.236.706.706,0,0,0,.33-.589.475.475,0,0,0-.26-.434,4.045,4.045,0,0,0-.818-.314,6.871,6.871,0,0,1-.924-.33,1.753,1.753,0,0,1-.617-.462,1.113,1.113,0,0,1-.252-.748,1.578,1.578,0,0,1,.631-1.314,2.578,2.578,0,0,1,1.623-.489,2.245,2.245,0,0,1,1.387.39,1.22,1.22,0,0,1,.517,1.017.909.909,0,0,1-.012.176l-.011.033a.1.1,0,0,1-.033.077.106.106,0,0,1-.077.034h-.748a.1.1,0,0,1-.082-.034.085.085,0,0,1-.017-.077l.011-.033a.565.565,0,0,0-.248-.533,1.289,1.289,0,0,0-.8-.215,1.515,1.515,0,0,0-.827.2.632.632,0,0,0-.318.555.483.483,0,0,0,.264.44,4.2,4.2,0,0,0,.836.33,8.559,8.559,0,0,1,.935.319,1.7,1.7,0,0,1,.621.451,1.119,1.119,0,0,1,.26.76,1.621,1.621,0,0,1-.293.962,1.867,1.867,0,0,1-.818.638,3.035,3.035,0,0,1-1.2.225A2.4,2.4,0,0,1,647.586,217.9Z" fill="#b0aea7"/>
    </g>
    <g id="グループ_8" data-name="グループ 8">
      <path id="パス_80" data-name="パス 80" d="M518.816,301.217v-7.2h1.495v2.744h2.8v-2.744H524.6v7.2h-1.495V298h-2.8v3.214Z" fill="#333232"/>
      <path id="パス_81" data-name="パス 81" d="M527.267,295.259h-1.412v-1.284h1.412Zm-1.412.635h1.412v5.323h-1.412Z" fill="#333232"/>
      <path id="パス_82" data-name="パス 82" d="M531.336,295.98a1.679,1.679,0,0,1,.611.588v-2.539h1.41v7.188h-1.351v-.738a1.974,1.974,0,0,1-.68.689,1.9,1.9,0,0,1-.947.215,1.979,1.979,0,0,1-1.569-.754,2.9,2.9,0,0,1-.638-1.937,3.33,3.33,0,0,1,.628-2.144,2.044,2.044,0,0,1,1.677-.781A1.7,1.7,0,0,1,531.336,295.98Zm.342,3.791a1.938,1.938,0,0,0,.308-1.138,1.743,1.743,0,0,0-.494-1.4,1.059,1.059,0,0,0-.7-.254.974.974,0,0,0-.9.462,2.482,2.482,0,0,0,0,2.325.986.986,0,0,0,.881.441A1.027,1.027,0,0,0,531.678,299.771Z" fill="#333232"/>
      <path id="パス_83" data-name="パス 83" d="M537.991,296a2.158,2.158,0,0,1,.919.789,2.6,2.6,0,0,1,.425,1.1,6.728,6.728,0,0,1,.046,1.057H535.5a1.275,1.275,0,0,0,.557,1.123,1.407,1.407,0,0,0,.767.2,1.184,1.184,0,0,0,.774-.245,1.162,1.162,0,0,0,.285-.366h1.422a1.738,1.738,0,0,1-.517.962,2.584,2.584,0,0,1-2,.776,2.9,2.9,0,0,1-1.875-.655,2.576,2.576,0,0,1-.811-2.131,2.881,2.881,0,0,1,.732-2.12,2.565,2.565,0,0,1,1.9-.739A3.035,3.035,0,0,1,537.991,296Zm-2.082,1.2a1.446,1.446,0,0,0-.37.824h2.4a1.164,1.164,0,0,0-.371-.841,1.219,1.219,0,0,0-.825-.287A1.1,1.1,0,0,0,535.909,297.2Z" fill="#333232"/>
      <path id="パス_84" data-name="パス 84" d="M539.437,296.934v-.991h.743v-1.485h1.377v1.485h.864v.991h-.864v2.813c0,.218.027.355.083.407a.9.9,0,0,0,.507.081l.134,0c.048,0,.094,0,.14-.006v1.04l-.659.024a1.766,1.766,0,0,1-1.348-.342,1.017,1.017,0,0,1-.234-.737v-3.277Z" fill="#333232"/>
      <path id="パス_85" data-name="パス 85" d="M547.652,300.565a2.93,2.93,0,0,1-4.091,0,3.3,3.3,0,0,1,0-4,2.9,2.9,0,0,1,4.091,0,3.3,3.3,0,0,1,0,4Zm-1.113-.768a2.48,2.48,0,0,0,0-2.465,1.235,1.235,0,0,0-1.877,0,2.466,2.466,0,0,0,0,2.465,1.234,1.234,0,0,0,1.877,0Z" fill="#333232"/>
      <path id="パス_86" data-name="パス 86" d="M550.3,299.518a.927.927,0,0,0,.191.527,1.3,1.3,0,0,0,.962.278,1.475,1.475,0,0,0,.654-.122.407.407,0,0,0,.047-.722,7.846,7.846,0,0,0-1.455-.42,3.03,3.03,0,0,1-1.278-.562,1.219,1.219,0,0,1-.371-.957,1.654,1.654,0,0,1,.58-1.267,2.327,2.327,0,0,1,1.632-.53,3,3,0,0,1,1.627.4,1.7,1.7,0,0,1,.721,1.375h-1.391a.826.826,0,0,0-.153-.425.956.956,0,0,0-.783-.283,1.121,1.121,0,0,0-.648.142.407.407,0,0,0-.194.332.363.363,0,0,0,.205.346,8.821,8.821,0,0,0,1.454.386,2.665,2.665,0,0,1,1.247.591,1.344,1.344,0,0,1,.41,1,1.614,1.614,0,0,1-.59,1.291,2.772,2.772,0,0,1-1.822.5,2.743,2.743,0,0,1-1.857-.53,1.718,1.718,0,0,1-.6-1.349Z" fill="#333232"/>
      <path id="パス_87" data-name="パス 87" d="M558.51,295.923a1.569,1.569,0,0,1,.658.524,1.419,1.419,0,0,1,.268.613,7.672,7.672,0,0,1,.048,1.028v3.129h-1.422v-3.242a1.44,1.44,0,0,0-.144-.694.731.731,0,0,0-.718-.371.985.985,0,0,0-.831.369,1.7,1.7,0,0,0-.283,1.054v2.884h-1.393v-7.174h1.393v2.54a1.712,1.712,0,0,1,.7-.648,1.98,1.98,0,0,1,.834-.183A2.26,2.26,0,0,1,558.51,295.923Z" fill="#333232"/>
      <path id="パス_88" data-name="パス 88" d="M562.123,295.259h-1.41v-1.284h1.41Zm-1.41.635h1.41v5.323h-1.41Z" fill="#333232"/>
      <path id="パス_89" data-name="パス 89" d="M570.092,294.019H571.8l-2.408,4.5v2.7h-1.5v-2.7l-2.49-4.5h1.773l1.494,3.135Z" fill="#333232"/>
      <path id="パス_90" data-name="パス 90" d="M574,297.979a2.178,2.178,0,0,0,.557-.122.42.42,0,0,0,.3-.4.472.472,0,0,0-.229-.452,1.472,1.472,0,0,0-.676-.124.889.889,0,0,0-.709.244,1.022,1.022,0,0,0-.2.489h-1.343a2.036,2.036,0,0,1,.392-1.148,2.288,2.288,0,0,1,1.9-.7,3.389,3.389,0,0,1,1.56.347,1.327,1.327,0,0,1,.681,1.308v2.442c0,.169,0,.374.01.615a.776.776,0,0,0,.083.372.5.5,0,0,0,.2.161v.205h-1.514a1.631,1.631,0,0,1-.088-.3c-.016-.1-.029-.2-.039-.322a2.868,2.868,0,0,1-.668.532,2.011,2.011,0,0,1-1.021.259,1.763,1.763,0,0,1-1.2-.412,1.467,1.467,0,0,1-.475-1.17,1.517,1.517,0,0,1,.762-1.422,3.413,3.413,0,0,1,1.23-.341Zm.851.649a1.573,1.573,0,0,1-.269.135,2.433,2.433,0,0,1-.374.1l-.317.059a2.042,2.042,0,0,0-.639.19.636.636,0,0,0-.329.591.619.619,0,0,0,.2.515.765.765,0,0,0,.488.159,1.453,1.453,0,0,0,.841-.264,1.111,1.111,0,0,0,.4-.962Z" fill="#333232"/>
      <path id="パス_91" data-name="パス 91" d="M581.65,296.2a1.764,1.764,0,0,1,.522,1.433v3.585h-1.426v-3.238a1.5,1.5,0,0,0-.111-.645.784.784,0,0,0-.776-.41.961.961,0,0,0-.964.6,2.084,2.084,0,0,0-.135.81v2.882h-1.393V295.9h1.348v.776a2.372,2.372,0,0,1,.506-.591,1.755,1.755,0,0,1,1.084-.322A2.046,2.046,0,0,1,581.65,296.2Z" fill="#333232"/>
      <path id="パス_92" data-name="パス 92" d="M585.475,297.979a2.158,2.158,0,0,0,.555-.122.42.42,0,0,0,.3-.4.47.47,0,0,0-.229-.452,1.472,1.472,0,0,0-.676-.124.886.886,0,0,0-.708.244,1.012,1.012,0,0,0-.2.489h-1.344a2.036,2.036,0,0,1,.392-1.148,2.287,2.287,0,0,1,1.9-.7,3.383,3.383,0,0,1,1.56.347,1.33,1.33,0,0,1,.682,1.308v2.442q0,.253.01.615a.779.779,0,0,0,.082.372.5.5,0,0,0,.205.161v.205H586.5a1.626,1.626,0,0,1-.088-.3c-.015-.1-.029-.2-.039-.322a2.867,2.867,0,0,1-.668.532,2.008,2.008,0,0,1-1.021.259,1.767,1.767,0,0,1-1.2-.412,1.469,1.469,0,0,1-.473-1.17,1.517,1.517,0,0,1,.762-1.422,3.412,3.412,0,0,1,1.23-.341Zm.851.649a1.62,1.62,0,0,1-.27.135,2.4,2.4,0,0,1-.374.1l-.317.059a2.041,2.041,0,0,0-.639.19.636.636,0,0,0-.33.591.617.617,0,0,0,.2.515.761.761,0,0,0,.488.159,1.45,1.45,0,0,0,.84-.264,1.114,1.114,0,0,0,.4-.962Z" fill="#333232"/>
      <path id="パス_93" data-name="パス 93" d="M591.461,295.889a1.673,1.673,0,0,1,.819.772v-.767h1.358v5.049a2.84,2.84,0,0,1-.347,1.553,2.548,2.548,0,0,1-2.285.9,3.114,3.114,0,0,1-1.665-.4,1.477,1.477,0,0,1-.713-1.2h1.514a.621.621,0,0,0,.19.351,1.176,1.176,0,0,0,.757.191,1.017,1.017,0,0,0,1.006-.5,2.557,2.557,0,0,0,.166-1.084v-.342a1.705,1.705,0,0,1-.43.513,1.723,1.723,0,0,1-1.079.317,2.044,2.044,0,0,1-1.639-.72,2.914,2.914,0,0,1-.612-1.951,3.284,3.284,0,0,1,.59-1.994,1.948,1.948,0,0,1,1.673-.809A1.835,1.835,0,0,1,591.461,295.889Zm.475,3.816a1.718,1.718,0,0,0,.335-1.174,1.806,1.806,0,0,0-.319-1.153,1.04,1.04,0,0,0-.853-.395,1.006,1.006,0,0,0-1.007.688,2.46,2.46,0,0,0-.146.9,2.064,2.064,0,0,0,.156.825,1.013,1.013,0,0,0,1.011.674A1.073,1.073,0,0,0,591.936,299.7Z" fill="#333232"/>
      <path id="パス_94" data-name="パス 94" d="M596.268,295.259h-1.413v-1.284h1.413Zm-1.413.635h1.413v5.323h-1.413Z" fill="#333232"/>
      <path id="パス_95" data-name="パス 95" d="M598.594,299.518a.927.927,0,0,0,.191.527,1.3,1.3,0,0,0,.961.278,1.481,1.481,0,0,0,.656-.122.408.408,0,0,0,.047-.722,7.9,7.9,0,0,0-1.456-.42,3.042,3.042,0,0,1-1.278-.562,1.216,1.216,0,0,1-.371-.957,1.654,1.654,0,0,1,.58-1.267,2.328,2.328,0,0,1,1.632-.53,3,3,0,0,1,1.627.4,1.706,1.706,0,0,1,.721,1.375h-1.391a.835.835,0,0,0-.152-.425.96.96,0,0,0-.783-.283,1.121,1.121,0,0,0-.649.142.407.407,0,0,0-.194.332.363.363,0,0,0,.206.346,8.725,8.725,0,0,0,1.454.386,2.67,2.67,0,0,1,1.246.591,1.344,1.344,0,0,1,.41,1,1.614,1.614,0,0,1-.59,1.291,3.541,3.541,0,0,1-3.679-.029,1.721,1.721,0,0,1-.6-1.349Z" fill="#333232"/>
      <path id="パス_96" data-name="パス 96" d="M605.084,297.979a2.168,2.168,0,0,0,.556-.122.419.419,0,0,0,.3-.4.47.47,0,0,0-.229-.452,1.469,1.469,0,0,0-.676-.124.888.888,0,0,0-.708.244,1.022,1.022,0,0,0-.2.489h-1.344a2.03,2.03,0,0,1,.393-1.148,2.286,2.286,0,0,1,1.9-.7,3.387,3.387,0,0,1,1.561.347,1.329,1.329,0,0,1,.681,1.308v2.442q0,.253.01.615a.791.791,0,0,0,.082.372.5.5,0,0,0,.205.161v.205H606.1a1.548,1.548,0,0,1-.087-.3c-.016-.1-.03-.2-.039-.322a2.91,2.91,0,0,1-.668.532,2.011,2.011,0,0,1-1.022.259,1.765,1.765,0,0,1-1.2-.412,1.466,1.466,0,0,1-.474-1.17,1.517,1.517,0,0,1,.762-1.422,3.412,3.412,0,0,1,1.23-.341Zm.852.649a1.59,1.59,0,0,1-.271.135,2.4,2.4,0,0,1-.374.1l-.316.059a2.058,2.058,0,0,0-.64.19.636.636,0,0,0-.329.591.617.617,0,0,0,.2.515.763.763,0,0,0,.488.159,1.449,1.449,0,0,0,.84-.264,1.114,1.114,0,0,0,.4-.962Z" fill="#333232"/>
      <path id="パス_97" data-name="パス 97" d="M610.947,295.894h1.412l.811,3.834.83-3.834h1.449l-1.543,5.323h-1.429l-.836-3.878-.844,3.878h-1.445l-1.495-5.323h1.495l.83,3.819Z" fill="#333232"/>
      <path id="パス_98" data-name="パス 98" d="M618.225,297.979a2.158,2.158,0,0,0,.554-.122.419.419,0,0,0,.3-.4.469.469,0,0,0-.23-.452,1.472,1.472,0,0,0-.676-.124.884.884,0,0,0-.707.244,1,1,0,0,0-.2.489h-1.343a2.036,2.036,0,0,1,.392-1.148,2.287,2.287,0,0,1,1.9-.7,3.376,3.376,0,0,1,1.559.347,1.33,1.33,0,0,1,.682,1.308v2.442q0,.253.01.615a.777.777,0,0,0,.083.372.488.488,0,0,0,.205.161v.205h-1.514a1.49,1.49,0,0,1-.088-.3c-.015-.1-.029-.2-.039-.322a2.867,2.867,0,0,1-.668.532,2.01,2.01,0,0,1-1.021.259,1.767,1.767,0,0,1-1.2-.412,1.466,1.466,0,0,1-.474-1.17,1.515,1.515,0,0,1,.763-1.422,3.4,3.4,0,0,1,1.229-.341Zm.85.649a1.547,1.547,0,0,1-.27.135,2.355,2.355,0,0,1-.373.1l-.317.059a2.05,2.05,0,0,0-.64.19.637.637,0,0,0-.329.591.614.614,0,0,0,.2.515.759.759,0,0,0,.488.159,1.452,1.452,0,0,0,.84-.264,1.116,1.116,0,0,0,.4-.962Z" fill="#333232"/>
    </g>
    <g id="グループ_9" data-name="グループ 9">
      <path id="パス_99" data-name="パス 99" d="M518.826,387.02h1.529v4.419a2.506,2.506,0,0,0,.175,1.083,1.461,1.461,0,0,0,2.369,0,2.492,2.492,0,0,0,.175-1.083V387.02h1.53v4.423a3.711,3.711,0,0,1-.357,1.787,3.321,3.321,0,0,1-5.064,0,3.7,3.7,0,0,1-.357-1.787Z" fill="#b0aea7"/>
      <path id="パス_100" data-name="パス 100" d="M527.032,391.995a1.447,1.447,0,0,0,.275.737,1.6,1.6,0,0,0,1.281.445,2.77,2.77,0,0,0,.883-.117.839.839,0,0,0,.642-.835.616.616,0,0,0-.314-.552,3.443,3.443,0,0,0-1-.337l-.779-.171a4.855,4.855,0,0,1-1.579-.552,1.756,1.756,0,0,1-.727-1.557,2.068,2.068,0,0,1,.712-1.607,3.031,3.031,0,0,1,2.091-.639,3.211,3.211,0,0,1,1.964.6,2.144,2.144,0,0,1,.853,1.751h-1.445a1.035,1.035,0,0,0-.58-.923,2,2,0,0,0-.9-.18,1.705,1.705,0,0,0-.951.234.741.741,0,0,0-.356.654.619.619,0,0,0,.351.576,4.316,4.316,0,0,0,.956.3l1.264.3a3.208,3.208,0,0,1,1.244.523,1.756,1.756,0,0,1,.643,1.469,2.064,2.064,0,0,1-.762,1.638,3.212,3.212,0,0,1-2.155.652,3.52,3.52,0,0,1-2.235-.642,2.123,2.123,0,0,1-.814-1.765Z" fill="#b0aea7"/>
      <path id="パス_101" data-name="パス 101" d="M534.576,387.02h1.7l2.547,7.2h-1.631l-.474-1.48h-2.651l-.488,1.48h-1.573Zm-.1,4.477h1.843l-.909-2.832Z" fill="#b0aea7"/>
      <path id="パス_102" data-name="パス 102" d="M543.433,386.8h1.157l-2.8,7.417h-1.148Z" fill="#b0aea7"/>
      <path id="パス_103" data-name="パス 103" d="M548.187,391.487v.166a3.323,3.323,0,0,0,.172,1.175.791.791,0,0,0,1.319-.032,2.031,2.031,0,0,0,.1-.742V387.02h1.5v5.009a2.9,2.9,0,0,1-.31,1.455,2,2,0,0,1-1.9.909,2.023,2.023,0,0,1-1.838-.735,3.707,3.707,0,0,1-.467-2v-.166Z" fill="#b0aea7"/>
      <path id="パス_104" data-name="パス 104" d="M554.766,390.979a2.157,2.157,0,0,0,.555-.122.418.418,0,0,0,.3-.395.469.469,0,0,0-.229-.452,1.472,1.472,0,0,0-.676-.124.886.886,0,0,0-.708.244,1,1,0,0,0-.2.488h-1.344a2.033,2.033,0,0,1,.392-1.147,2.288,2.288,0,0,1,1.9-.7,3.4,3.4,0,0,1,1.56.346,1.331,1.331,0,0,1,.682,1.309v2.441q0,.253.01.615a.779.779,0,0,0,.082.372.5.5,0,0,0,.205.161v.205h-1.514a1.631,1.631,0,0,1-.088-.3c-.015-.1-.029-.2-.039-.322a2.867,2.867,0,0,1-.668.532,2.008,2.008,0,0,1-1.021.259,1.763,1.763,0,0,1-1.2-.412,1.466,1.466,0,0,1-.474-1.17,1.515,1.515,0,0,1,.762-1.421,3.41,3.41,0,0,1,1.23-.342Zm.851.65a1.62,1.62,0,0,1-.27.135,2.42,2.42,0,0,1-.374.094l-.317.059a2.069,2.069,0,0,0-.639.19.636.636,0,0,0-.33.591.617.617,0,0,0,.2.515.761.761,0,0,0,.488.159,1.449,1.449,0,0,0,.84-.264,1.114,1.114,0,0,0,.4-.962Z" fill="#b0aea7"/>
      <path id="パス_105" data-name="パス 105" d="M562.6,389.466a2.841,2.841,0,0,1,.65,2.021,3.193,3.193,0,0,1-.636,2.144,2.066,2.066,0,0,1-1.639.737,1.712,1.712,0,0,1-1.061-.317,2.055,2.055,0,0,1-.453-.513v2.774H558.08v-7.417h1.334v.786a2.224,2.224,0,0,1,.481-.547,1.776,1.776,0,0,1,1.111-.357A2.108,2.108,0,0,1,562.6,389.466Zm-1.069,1a.99.99,0,0,0-.92-.474,1.046,1.046,0,0,0-1.05.718,2.688,2.688,0,0,0-.149.967,1.534,1.534,0,0,0,.5,1.3,1.144,1.144,0,0,0,.7.22,1.016,1.016,0,0,0,.9-.449,2.349,2.349,0,0,0,.025-2.285Z" fill="#b0aea7"/>
      <path id="パス_106" data-name="パス 106" d="M566.236,390.979a2.158,2.158,0,0,0,.555-.122.418.418,0,0,0,.3-.395.467.467,0,0,0-.231-.452,1.467,1.467,0,0,0-.675-.124.884.884,0,0,0-.707.244,1,1,0,0,0-.2.488h-1.343a2.04,2.04,0,0,1,.393-1.147,2.286,2.286,0,0,1,1.9-.7,3.392,3.392,0,0,1,1.56.346,1.331,1.331,0,0,1,.682,1.309v2.441q0,.253.009.615a.789.789,0,0,0,.083.372.494.494,0,0,0,.205.161v.205h-1.513a1.49,1.49,0,0,1-.088-.3c-.016-.1-.029-.2-.039-.322a2.887,2.887,0,0,1-.668.532,2.014,2.014,0,0,1-1.022.259,1.771,1.771,0,0,1-1.2-.412,1.469,1.469,0,0,1-.473-1.17,1.515,1.515,0,0,1,.762-1.421,3.41,3.41,0,0,1,1.23-.342Zm.851.65a1.519,1.519,0,0,1-.271.135,2.314,2.314,0,0,1-.373.094l-.316.059a2.094,2.094,0,0,0-.641.19.638.638,0,0,0-.328.591.616.616,0,0,0,.2.515.762.762,0,0,0,.489.159,1.449,1.449,0,0,0,.839-.264,1.116,1.116,0,0,0,.4-.962Z" fill="#b0aea7"/>
      <path id="パス_107" data-name="パス 107" d="M573.881,389.2a1.766,1.766,0,0,1,.523,1.434v3.584h-1.425v-3.238a1.486,1.486,0,0,0-.112-.644.785.785,0,0,0-.776-.41.961.961,0,0,0-.964.6,2.068,2.068,0,0,0-.137.811v2.881H569.6V388.9h1.347v.777a2.314,2.314,0,0,1,.506-.591,1.751,1.751,0,0,1,1.084-.322A2.045,2.045,0,0,1,573.881,389.2Z" fill="#b0aea7"/>
    </g>
    <g id="グループ_10" data-name="グループ 10">
      <path id="パス_108" data-name="パス 108" d="M522.539,310.924a1.556,1.556,0,0,1,.659.523,1.379,1.379,0,0,1,.267.614,7.469,7.469,0,0,1,.049,1.028v3.128h-1.42v-3.241a1.429,1.429,0,0,0-.147-.7.728.728,0,0,0-.717-.371.984.984,0,0,0-.831.369,1.7,1.7,0,0,0-.284,1.054v2.884h-1.39v-7.173h1.39v2.539a1.7,1.7,0,0,1,.7-.647,1.967,1.967,0,0,1,.833-.183A2.253,2.253,0,0,1,522.539,310.924Z" fill="#faab15"/>
      <path id="パス_109" data-name="パス 109" d="M528.191,311a2.163,2.163,0,0,1,.919.788,2.614,2.614,0,0,1,.425,1.1,6.729,6.729,0,0,1,.045,1.056H525.7a1.277,1.277,0,0,0,.557,1.123,1.406,1.406,0,0,0,.766.2,1.082,1.082,0,0,0,1.06-.611h1.421a1.73,1.73,0,0,1-.516.962,2.583,2.583,0,0,1-2,.776,2.9,2.9,0,0,1-1.875-.655,2.577,2.577,0,0,1-.812-2.131,2.877,2.877,0,0,1,.733-2.12,2.564,2.564,0,0,1,1.9-.738A3.039,3.039,0,0,1,528.191,311Zm-2.082,1.2a1.45,1.45,0,0,0-.371.824h2.4a1.168,1.168,0,0,0-.37-.84,1.222,1.222,0,0,0-.827-.288A1.106,1.106,0,0,0,526.109,312.2Z" fill="#faab15"/>
      <path id="パス_110" data-name="パス 110" d="M531.6,316.217h-1.392v-7.2H531.6Z" fill="#faab15"/>
      <path id="パス_111" data-name="パス 111" d="M534.283,316.217h-1.39v-7.2h1.39Z" fill="#faab15"/>
      <path id="パス_112" data-name="パス 112" d="M539.979,315.565a2.93,2.93,0,0,1-4.091,0,3.3,3.3,0,0,1,0-4,2.9,2.9,0,0,1,4.091,0,3.3,3.3,0,0,1,0,4Zm-1.113-.768a2.486,2.486,0,0,0,0-2.465,1.237,1.237,0,0,0-1.878,0,2.473,2.473,0,0,0,0,2.465,1.235,1.235,0,0,0,1.878,0Z" fill="#faab15"/>
      <path id="パス_113" data-name="パス 113" d="M544.208,314.117a1.677,1.677,0,0,1-.394-1.186,2.653,2.653,0,0,1,.6-1.656,1.808,1.808,0,0,1,1.475-.771,1.079,1.079,0,0,1,.795.283,1.119,1.119,0,0,1,.289.5l.175-.615h.922l-.625,2.119c-.049.173-.084.3-.1.384a.9.9,0,0,0-.032.217.454.454,0,0,0,.1.275.367.367,0,0,0,.313.13,1.136,1.136,0,0,0,.842-.55,2.317,2.317,0,0,0,.423-1.457,2,2,0,0,0-1.152-1.929,3.515,3.515,0,0,0-1.627-.371,3.587,3.587,0,0,0-2.666,1.016,3.02,3.02,0,0,0-.908,2.2,2.724,2.724,0,0,0,1.064,2.261,3.626,3.626,0,0,0,2.3.737,4.384,4.384,0,0,0,1.732-.342,4.6,4.6,0,0,0,.909-.513l.117-.083.357.547a5.264,5.264,0,0,1-1.5.819,5.1,5.1,0,0,1-1.677.28,3.967,3.967,0,0,1-3.139-1.26,3.776,3.776,0,0,1,.228-5.19,4.271,4.271,0,0,1,3.1-1.177,3.963,3.963,0,0,1,2.549.806,2.742,2.742,0,0,1,1.064,2.256,2.838,2.838,0,0,1-.674,1.9,1.986,1.986,0,0,1-1.539.793.909.909,0,0,1-.69-.254.759.759,0,0,1-.241-.522c0-.023,0-.048,0-.076s0-.058.008-.091a2.05,2.05,0,0,1-.417.562,1.428,1.428,0,0,1-1,.376A1.286,1.286,0,0,1,544.208,314.117Zm2.331-2.768a.53.53,0,0,0-.42-.176,1.04,1.04,0,0,0-.873.632,2.446,2.446,0,0,0-.367,1.223.939.939,0,0,0,.164.576.54.54,0,0,0,.461.22q.523,0,.857-.793a3.485,3.485,0,0,0,.334-1.248A.624.624,0,0,0,546.539,311.349Z" fill="#faab15"/>
      <path id="パス_114" data-name="パス 114" d="M551.41,317.237l.176.01a2.086,2.086,0,0,0,.391-.015.691.691,0,0,0,.312-.112.75.75,0,0,0,.227-.347.823.823,0,0,0,.09-.322l-1.956-5.556H552.2l1.162,3.925,1.1-3.925h1.48l-1.825,5.234a7.333,7.333,0,0,1-.837,1.877,1.586,1.586,0,0,1-1.232.364c-.123,0-.223,0-.3,0s-.187-.007-.338-.016Z" fill="#faab15"/>
      <path id="パス_115" data-name="パス 115" d="M558.77,312.979a2.158,2.158,0,0,0,.555-.122.418.418,0,0,0,.3-.395.469.469,0,0,0-.229-.452,1.472,1.472,0,0,0-.676-.124.886.886,0,0,0-.708.244,1.014,1.014,0,0,0-.2.488h-1.343a2.033,2.033,0,0,1,.392-1.147,2.287,2.287,0,0,1,1.9-.7,3.4,3.4,0,0,1,1.56.346,1.331,1.331,0,0,1,.682,1.309v2.441q0,.253.01.615a.779.779,0,0,0,.082.372.5.5,0,0,0,.205.161v.205h-1.514a1.627,1.627,0,0,1-.088-.3c-.016-.1-.029-.2-.039-.322a2.867,2.867,0,0,1-.668.532,2.01,2.01,0,0,1-1.021.259,1.768,1.768,0,0,1-1.2-.412,1.469,1.469,0,0,1-.473-1.17,1.516,1.516,0,0,1,.761-1.421,3.423,3.423,0,0,1,1.231-.342Zm.851.65a1.62,1.62,0,0,1-.27.135,2.419,2.419,0,0,1-.374.094l-.317.059a2.069,2.069,0,0,0-.639.19.636.636,0,0,0-.33.591.617.617,0,0,0,.2.515.759.759,0,0,0,.488.159,1.45,1.45,0,0,0,.84-.264,1.114,1.114,0,0,0,.4-.962Z" fill="#faab15"/>
      <path id="パス_116" data-name="パス 116" d="M566.416,311.2a1.766,1.766,0,0,1,.521,1.434v3.584h-1.425v-3.238a1.472,1.472,0,0,0-.112-.644.782.782,0,0,0-.775-.41.962.962,0,0,0-.965.6,2.09,2.09,0,0,0-.135.811v2.881h-1.392V310.9h1.347v.777a2.375,2.375,0,0,1,.506-.591,1.751,1.751,0,0,1,1.084-.322A2.051,2.051,0,0,1,566.416,311.2Z" fill="#faab15"/>
      <path id="パス_117" data-name="パス 117" d="M570.24,312.979a2.157,2.157,0,0,0,.555-.122.418.418,0,0,0,.3-.395.467.467,0,0,0-.231-.452,1.469,1.469,0,0,0-.676-.124.885.885,0,0,0-.707.244,1,1,0,0,0-.2.488h-1.343a2.041,2.041,0,0,1,.393-1.147,2.286,2.286,0,0,1,1.9-.7,3.393,3.393,0,0,1,1.56.346,1.331,1.331,0,0,1,.682,1.309v2.441c0,.169,0,.374.009.615a.789.789,0,0,0,.083.372.494.494,0,0,0,.205.161v.205h-1.513a1.427,1.427,0,0,1-.088-.3c-.016-.1-.029-.2-.039-.322a2.889,2.889,0,0,1-.668.532,2.014,2.014,0,0,1-1.022.259,1.771,1.771,0,0,1-1.2-.412,1.468,1.468,0,0,1-.473-1.17,1.513,1.513,0,0,1,.762-1.421,3.41,3.41,0,0,1,1.23-.342Zm.851.65a1.522,1.522,0,0,1-.271.135,2.374,2.374,0,0,1-.373.094l-.316.059a2.094,2.094,0,0,0-.641.19.637.637,0,0,0-.328.591.617.617,0,0,0,.2.515.762.762,0,0,0,.489.159,1.449,1.449,0,0,0,.839-.264,1.116,1.116,0,0,0,.4-.962Z" fill="#faab15"/>
      <path id="パス_118" data-name="パス 118" d="M576.227,310.89a1.664,1.664,0,0,1,.818.771v-.766H578.4v5.048a2.841,2.841,0,0,1-.345,1.553,2.554,2.554,0,0,1-2.286.9,3.118,3.118,0,0,1-1.666-.4,1.476,1.476,0,0,1-.712-1.2h1.513a.622.622,0,0,0,.192.351,1.171,1.171,0,0,0,.756.191,1.016,1.016,0,0,0,1.005-.5,2.527,2.527,0,0,0,.166-1.084v-.342a1.676,1.676,0,0,1-.429.513,1.724,1.724,0,0,1-1.078.317,2.043,2.043,0,0,1-1.639-.72,2.914,2.914,0,0,1-.613-1.951,3.3,3.3,0,0,1,.589-1.994,1.952,1.952,0,0,1,1.674-.808A1.847,1.847,0,0,1,576.227,310.89Zm.473,3.815a1.708,1.708,0,0,0,.335-1.174,1.8,1.8,0,0,0-.318-1.152,1.038,1.038,0,0,0-.854-.4,1.006,1.006,0,0,0-1.006.689,2.454,2.454,0,0,0-.146.9,2.078,2.078,0,0,0,.156.825,1.014,1.014,0,0,0,1.012.674A1.066,1.066,0,0,0,576.7,314.7Z" fill="#faab15"/>
      <path id="パス_119" data-name="パス 119" d="M581.032,310.26h-1.411v-1.284h1.411Zm-1.411.635h1.411v5.322h-1.411Z" fill="#faab15"/>
      <path id="パス_120" data-name="パス 120" d="M585.463,312.8a1.223,1.223,0,0,0-.2-.537.845.845,0,0,0-.73-.323.96.96,0,0,0-.964.7,2.91,2.91,0,0,0-.137.983,2.674,2.674,0,0,0,.137.94.93.93,0,0,0,.94.664.829.829,0,0,0,.7-.263,1.309,1.309,0,0,0,.249-.684h1.422a2.33,2.33,0,0,1-.46,1.2,2.232,2.232,0,0,1-1.94.913,2.27,2.27,0,0,1-1.892-.761,3.083,3.083,0,0,1-.606-1.976,3.125,3.125,0,0,1,.669-2.131,2.333,2.333,0,0,1,1.848-.761,2.78,2.78,0,0,1,1.64.449,2.089,2.089,0,0,1,.755,1.587Z" fill="#faab15"/>
      <path id="パス_121" data-name="パス 121" d="M592.18,315.565a2.932,2.932,0,0,1-4.092,0,3.3,3.3,0,0,1,0-4,2.9,2.9,0,0,1,4.092,0,3.3,3.3,0,0,1,0,4Zm-1.114-.768a2.473,2.473,0,0,0,0-2.465,1.235,1.235,0,0,0-1.877,0,2.466,2.466,0,0,0,0,2.465,1.233,1.233,0,0,0,1.877,0Z" fill="#faab15"/>
      <path id="パス_122" data-name="パス 122" d="M596.572,310.98a1.694,1.694,0,0,1,.611.588v-2.539h1.411v7.188h-1.353v-.738a1.965,1.965,0,0,1-.679.689,1.9,1.9,0,0,1-.947.215,1.983,1.983,0,0,1-1.57-.754,2.905,2.905,0,0,1-.637-1.937,3.331,3.331,0,0,1,.627-2.143,2.044,2.044,0,0,1,1.678-.781A1.71,1.71,0,0,1,596.572,310.98Zm.342,3.791a1.936,1.936,0,0,0,.308-1.137,1.749,1.749,0,0,0-.493-1.4,1.063,1.063,0,0,0-.7-.254.979.979,0,0,0-.9.462,2.139,2.139,0,0,0-.285,1.145,2.112,2.112,0,0,0,.291,1.18.983.983,0,0,0,.881.441A1.027,1.027,0,0,0,596.914,314.771Z" fill="#faab15"/>
      <path id="パス_123" data-name="パス 123" d="M603.227,311a2.169,2.169,0,0,1,.919.788,2.6,2.6,0,0,1,.424,1.1,6.843,6.843,0,0,1,.046,1.056H600.74a1.277,1.277,0,0,0,.557,1.123,1.406,1.406,0,0,0,.766.2,1.085,1.085,0,0,0,1.06-.611h1.42a1.73,1.73,0,0,1-.516.962,2.583,2.583,0,0,1-2,.776,2.9,2.9,0,0,1-1.875-.655,2.58,2.58,0,0,1-.812-2.131,2.873,2.873,0,0,1,.734-2.12,2.565,2.565,0,0,1,1.9-.738A3.042,3.042,0,0,1,603.227,311Zm-2.082,1.2a1.444,1.444,0,0,0-.372.824h2.4a1.165,1.165,0,0,0-.371-.84,1.219,1.219,0,0,0-.826-.288A1.105,1.105,0,0,0,601.145,312.2Z" fill="#faab15"/>
      <path id="パス_124" data-name="パス 124" d="M608.176,310.77l.12.007V312.2c-.088-.01-.166-.016-.234-.019s-.125-.005-.166-.005a1.152,1.152,0,0,0-1.128.547,2.114,2.114,0,0,0-.162.947v2.544h-1.4v-5.322h1.328v.927a2.964,2.964,0,0,1,.562-.727,1.526,1.526,0,0,1,1.015-.327Z" fill="#faab15"/>
      <path id="パス_125" data-name="パス 125" d="M608.439,314.757h1.481v1.46h-1.481Z" fill="#faab15"/>
      <path id="パス_126" data-name="パス 126" d="M614.326,312.8a1.209,1.209,0,0,0-.2-.537.842.842,0,0,0-.73-.323.959.959,0,0,0-.963.7,2.881,2.881,0,0,0-.138.983,2.648,2.648,0,0,0,.138.94.929.929,0,0,0,.939.664.828.828,0,0,0,.7-.263,1.31,1.31,0,0,0,.249-.684h1.422a2.321,2.321,0,0,1-.46,1.2,2.232,2.232,0,0,1-1.94.913,2.271,2.271,0,0,1-1.892-.761,3.083,3.083,0,0,1-.606-1.976,3.12,3.12,0,0,1,.67-2.131,2.329,2.329,0,0,1,1.847-.761,2.78,2.78,0,0,1,1.64.449,2.089,2.089,0,0,1,.755,1.587Z" fill="#faab15"/>
      <path id="パス_127" data-name="パス 127" d="M621.043,315.565a2.932,2.932,0,0,1-4.092,0,3.3,3.3,0,0,1,0-4,2.9,2.9,0,0,1,4.092,0,3.3,3.3,0,0,1,0,4Zm-1.113-.768a2.486,2.486,0,0,0,0-2.465,1.235,1.235,0,0,0-1.877,0,2.467,2.467,0,0,0,0,2.465,1.234,1.234,0,0,0,1.877,0Z" fill="#faab15"/>
      <path id="パス_128" data-name="パス 128" d="M629.254,310.914a1.552,1.552,0,0,1,.619.479,1.521,1.521,0,0,1,.3.683,4.685,4.685,0,0,1,.049.786l-.01,3.355h-1.426v-3.389a1.1,1.1,0,0,0-.1-.5.693.693,0,0,0-.683-.371.8.8,0,0,0-.795.479,1.5,1.5,0,0,0-.113.61v3.169h-1.4v-3.169a1.808,1.808,0,0,0-.1-.689.686.686,0,0,0-.69-.385.825.825,0,0,0-.8.385,1.505,1.505,0,0,0-.111.655v3.2h-1.412V310.9h1.353v.777a2.2,2.2,0,0,1,.489-.591,1.927,1.927,0,0,1,2.035-.044,1.557,1.557,0,0,1,.459.64,1.766,1.766,0,0,1,.68-.689,2.075,2.075,0,0,1,.957-.22A1.86,1.86,0,0,1,629.254,310.914Z" fill="#faab15"/>
    </g>
    <g id="グループ_11" data-name="グループ 11">
      <path id="パス_129" data-name="パス 129" d="M199.9,80.952a10.113,10.113,0,0,1,1.907-.168,3.341,3.341,0,0,1,2.219.588,1.693,1.693,0,0,1,.672,1.427,1.92,1.92,0,0,1-1.368,1.775V84.6a2.084,2.084,0,0,1,1.667,2.027,2.177,2.177,0,0,1-.683,1.619,4.059,4.059,0,0,1-2.795.755,12.416,12.416,0,0,1-1.619-.1Zm1.044,3.31h.947c1.1,0,1.751-.576,1.751-1.355,0-.948-.72-1.319-1.775-1.319a4.49,4.49,0,0,0-.923.071Zm0,3.874a5.557,5.557,0,0,0,.875.048c1.079,0,2.075-.4,2.075-1.571,0-1.1-.947-1.56-2.087-1.56h-.863Z" fill="#161615"/>
      <path id="パス_130" data-name="パス 130" d="M209.578,88.927l-.084-.731h-.036a2.159,2.159,0,0,1-1.775.863,1.654,1.654,0,0,1-1.775-1.667c0-1.4,1.248-2.171,3.49-2.158v-.12a1.2,1.2,0,0,0-1.319-1.344,2.89,2.89,0,0,0-1.511.432l-.24-.695a3.6,3.6,0,0,1,1.907-.516c1.775,0,2.207,1.211,2.207,2.374v2.171a8.166,8.166,0,0,0,.1,1.391Zm-.156-2.962c-1.151-.024-2.458.18-2.458,1.307a.934.934,0,0,0,.995,1.008,1.445,1.445,0,0,0,1.4-.972,1.132,1.132,0,0,0,.059-.336Z" fill="#161615"/>
      <path id="パス_131" data-name="パス 131" d="M216.286,88.712a3.884,3.884,0,0,1-1.667.336,2.759,2.759,0,0,1-2.891-2.963A2.95,2.95,0,0,1,214.847,83a3.531,3.531,0,0,1,1.463.3l-.24.816a2.446,2.446,0,0,0-1.223-.275,2.188,2.188,0,0,0-.036,4.365,3,3,0,0,0,1.295-.288Z" fill="#161615"/>
      <path id="パス_132" data-name="パス 132" d="M218.568,85.785h.024c.144-.2.347-.456.515-.659l1.7-2h1.272l-2.243,2.387,2.554,3.417H221.11l-2-2.782-.539.6v2.182h-1.044V80.412h1.044Z" fill="#161615"/>
    </g>
    <g id="グループ_12" data-name="グループ 12">
      <path id="パス_133" data-name="パス 133" d="M571.344,81.528H575.7V82.4h-3.309V85.09h3.057v.863h-3.057v3.658h-1.044Z" fill="#161615"/>
      <path id="パス_134" data-name="パス 134" d="M576.84,85.618c0-.684-.012-1.272-.048-1.811h.924l.036,1.139h.048a1.741,1.741,0,0,1,1.606-1.271,1.2,1.2,0,0,1,.3.035v1a1.592,1.592,0,0,0-.36-.036,1.48,1.48,0,0,0-1.415,1.355,2.866,2.866,0,0,0-.048.492v3.094H576.84Z" fill="#161615"/>
      <path id="パス_135" data-name="パス 135" d="M585.9,86.661a2.836,2.836,0,0,1-2.889,3.082,2.76,2.76,0,0,1-2.783-2.986,2.834,2.834,0,0,1,2.879-3.082A2.748,2.748,0,0,1,585.9,86.661Zm-4.6.06c0,1.271.732,2.231,1.764,2.231,1.007,0,1.762-.948,1.762-2.255,0-.984-.491-2.231-1.739-2.231S581.291,85.618,581.291,86.721Z" fill="#161615"/>
      <path id="パス_136" data-name="パス 136" d="M587.232,85.377c0-.6-.011-1.091-.047-1.57h.935l.06.959h.024a2.132,2.132,0,0,1,1.919-1.091c.8,0,2.051.479,2.051,2.47v3.466h-1.056V86.265c0-.935-.347-1.715-1.344-1.715a1.5,1.5,0,0,0-1.415,1.079,1.548,1.548,0,0,0-.071.492v3.49h-1.056Z" fill="#161615"/>
      <path id="パス_137" data-name="パス 137" d="M595.115,82.14v1.667h1.512v.8h-1.512v3.13c0,.72.2,1.128.792,1.128a2.349,2.349,0,0,0,.612-.072l.047.791a2.579,2.579,0,0,1-.935.144,1.468,1.468,0,0,1-1.14-.443,2.152,2.152,0,0,1-.407-1.512V84.61h-.9v-.8h.9V82.415Z" fill="#161615"/>
    </g>
  </g>
</svg>
