<svg xmlns="http://www.w3.org/2000/svg" width="133.101" height="25.967" viewBox="0 0 133.101 25.967">
  <g id="グループ_6" data-name="グループ 6" transform="translate(-519.111 -172.062)">
    <path id="パス_47" data-name="パス 47" d="M610.005,188.566l2.04,5.755h4.08l-8.374-21.741h-2.068v3.745h.058L609,185.673Z" transform="translate(-1)" fill="#fff"/>
    <g id="グループ_5" data-name="グループ 5">
      <path id="パス_48" data-name="パス 48" d="M649.732,194.068a1.481,1.481,0,1,1-1.481,1.48,1.482,1.482,0,0,1,1.481-1.48m0-1a2.481,2.481,0,1,0,2.48,2.48,2.48,2.48,0,0,0-2.48-2.48Z" fill="#b0aea7"/>
    </g>
    <path id="パス_49" data-name="パス 49" d="M527.272,185.795l-8.161-13.216h4.415l5.755,9.744,5.664-9.744h4.263l-8.13,13.216v8.526h-3.806Z" fill="#fff"/>
    <path id="パス_50" data-name="パス 50" d="M574.819,172.579h4.019l9.927,16.017h.061V172.579h3.624v21.742h-4.02l-9.9-15.987h-.091v15.987h-3.624Z" fill="#fff"/>
    <path id="パス_51" data-name="パス 51" d="M640.027,172.579h3.806v21.742h-3.806Z" fill="#fff"/>
    <path id="パス_52" data-name="パス 52" d="M602.362,185.673l3.289-9.348h.034v-3.745H603.7l-8.343,21.741h3.928l2.04-5.755Z" fill="#fff"/>
    <path id="パス_53" data-name="パス 53" d="M556.335,175.6a18.589,18.589,0,0,1,.211-2.8h-3.711a22.24,22.24,0,0,0,22.05,25.025v-3.675A18.571,18.571,0,0,1,556.335,175.6Z" fill="#fff"/>
    <path id="パス_54" data-name="パス 54" d="M553.01,172.8H549.3a18.553,18.553,0,0,1-18.338,21.35v3.675A22.226,22.226,0,0,0,553.185,175.6,22.49,22.49,0,0,0,553.01,172.8Z" fill="#fff"/>
    <rect id="長方形_4" data-name="長方形 4" width="3.6" height="3.5" transform="translate(527.385 194.396)" fill="#faab15"/>
    <rect id="長方形_5" data-name="長方形 5" width="69.127" height="3.543" transform="translate(574.854 194.273)" fill="#faab15"/>
    <path id="パス_55" data-name="パス 55" d="M635.886,194.321H633.45l-.579-2.558a9.035,9.035,0,0,1-3.045,2.4,8.612,8.612,0,0,1-3.5.67,10.249,10.249,0,0,1-4.37-.9,9.6,9.6,0,0,1-3.273-2.451,10.947,10.947,0,0,1-2.056-3.624,13.9,13.9,0,0,1,0-8.8,10.952,10.952,0,0,1,2.056-3.623,9.773,9.773,0,0,1,3.273-2.467,10.106,10.106,0,0,1,4.37-.913,11.8,11.8,0,0,1,3.364.472,8.99,8.99,0,0,1,2.847,1.4,7.761,7.761,0,0,1,2.071,2.33,8.168,8.168,0,0,1,1.035,3.228h-3.715a4.659,4.659,0,0,0-1.918-3.228,5.522,5.522,0,0,0-1.7-.822,7.056,7.056,0,0,0-1.979-.274,6.1,6.1,0,0,0-3,.7,5.892,5.892,0,0,0-2.055,1.873A8.425,8.425,0,0,0,620.1,180.4a12.357,12.357,0,0,0,0,6.09,8.415,8.415,0,0,0,1.172,2.664,5.873,5.873,0,0,0,2.055,1.873,6.1,6.1,0,0,0,3,.7,7.076,7.076,0,0,0,2.588-.38,5.137,5.137,0,0,0,1.9-1.188,4.973,4.973,0,0,0,1.172-1.9,8.045,8.045,0,0,0,.427-2.5h-5.786v-2.892h9.257Z" fill="#fff"/>
  </g>
</svg>
